<?xml version="1.0" encoding="utf-8"?>
<!-- Generator: Adobe Illustrator 27.4.1, SVG Export Plug-In . SVG Version: 6.00 Build 0)  -->
<svg version="1.1" id="Layer_1" xmlns="http://www.w3.org/2000/svg" xmlns:xlink="http://www.w3.org/1999/xlink" x="0px" y="0px"
	 viewBox="0 0 1366 524" style="enable-background:new 0 0 1366 524;" xml:space="preserve">
<style type="text/css">
	.st0{fill:#FFFFFF;}
	.st1{opacity:0.45;}
	.st2{opacity:0.49;}
	.st3{fill:#E1E5E9;}
	.st4{opacity:0.398;}
</style>
<rect y="-807.5" class="st0" width="1366" height="524"/>
<g id="Group_116425" transform="translate(0 66.67)" class="st1">
	<g id="Group_114247" transform="translate(43.389 0.119)">
		<path id="Path_84400" class="st0" d="M370.6-92.5c7.3,0.5,13.8,4.4,20.6,7c8.1,3,17,3,25.2,5.5c0.5,0.1,0.9-0.2,1-0.6
			c0.1-0.5-0.2-0.9-0.6-1c-8.3-2.5-17-2.7-25.2-5.5c-7.1-2.3-13.6-6.4-21-7C369.5-94.3,369.5-92.6,370.6-92.5z"/>
	</g>
	<g id="Group_114248" transform="translate(4.149)">
		<path id="Path_84401" class="st0" d="M409.1-93.7c-5.8,9.9-13.6,18.8-20.8,27.6c-3.4,4.3-7.3,8-11.1,11.9c-3.1,3.3-4.7,7-7.3,10.6
			c-0.7,1,0.8,1.8,1.5,0.8c2.8-4,5-8,8.4-11.7c3.8-4.1,7.7-8,11.3-12.4c6.8-8.4,14-16.9,19.5-26.1C411.2-93.7,409.7-94.7,409.1-93.7
			z"/>
	</g>
	<g id="Group_114249" transform="translate(53.159 12.482)">
		<path id="Path_84402" class="st0" d="M406.7-93.9c-5.3,6.6-11,13-15.5,20.3c-3.5,5.6-6.9,11.5-10.4,17.2
			c-3.3,4.9-6.6,11.7-10.7,15.8c-0.3,0.3-0.3,0.9,0,1.2s0.9,0.3,1.2,0c3.3-3.3,5.6-8,8.1-11.8c3.9-5.6,7.5-11.5,10.9-17.3
			c5.2-8.6,11.4-16.2,17.6-24C408.6-93.5,407.3-94.7,406.7-93.9L406.7-93.9z"/>
	</g>
	<g id="Group_114250" transform="translate(4.186 50.899)">
		<path id="Path_84403" class="st0" d="M370.6-92.4c16.7,1.6,32.6,10.2,48.3,15.1c0.5,0.1,0.9-0.2,1-0.6c0.1-0.5-0.2-0.9-0.6-1l0,0
			c-15.9-5.1-31.9-13.6-48.7-15.2C369.5-94.1,369.5-92.5,370.6-92.4z"/>
	</g>
	<g id="Group_114251" transform="translate(0 50.492)">
		<path id="Path_84404" class="st0" d="M373.8-93.9c-6.8,6.7-4.9,22.8,4.5,26.5c1.1,0.4,1.5-1.2,0.4-1.6c-8.1-3.2-9.5-17.8-3.8-23.5
			C375.8-93.5,374.6-94.7,373.8-93.9L373.8-93.9z"/>
	</g>
	<g id="Group_114252" transform="translate(7.966 75.462)">
		<path id="Path_84405" class="st0" d="M370.6-92.4c8.3,0.4,15.9,4.1,23.3,7.1c7.8,3.1,15.9,5.2,24.1,6.2c1.1,0.1,1.1-1.6,0-1.8
			c-8.9-1.2-17.7-3.6-26-7c-6.9-2.9-14-5.9-21.6-6.3C369.5-94.1,369.5-92.4,370.6-92.4L370.6-92.4z"/>
	</g>
	<g id="Group_114253" transform="translate(88.054 12.526)">
		<path id="Path_84406" class="st0" d="M371.5-93.5c-0.8,3.8-2.3,8-1.5,11.9c0.5,3,2.6,7,5.4,8.2c0.9,0.4,1.9-1.1,0.8-1.5
			c-2.6-1.1-3.9-4.5-4.6-7.1c-0.9-3.3,0.8-7.7,1.5-11C373.4-94.2,371.8-94.6,371.5-93.5L371.5-93.5z"/>
	</g>
	<g id="Group_114254" transform="translate(55.465 31.693)">
		<path id="Path_84407" class="st0" d="M407.7-93.9c-3.8,3.4-6,8.5-9.2,12.6c-3.1,4-6,7.8-8.8,11.9c-3.4,4.9-7.3,9.5-10.3,14.8
			c-3.4,5.8-4.7,12.9-9.4,17.8c-0.3,0.3-0.3,0.9,0,1.2s0.9,0.3,1.2,0c3.1-3.4,4.9-7.8,6.8-12.1c2.5-5.5,5.6-10.6,9.2-15.4
			c3.8-5.1,6.8-11,11.1-15.5c4.1-4.3,6.2-10.2,10.6-14.1c0.4-0.3,0.5-0.9,0.2-1.3C408.8-94.2,408.2-94.3,407.7-93.9
			C407.8-93.9,407.8-93.9,407.7-93.9z"/>
	</g>
	<g id="Group_114255" transform="translate(51.634 66.131)">
		<path id="Path_84408" class="st0" d="M370.7-93.3c0.1,3.8-1.5,7.7-0.8,11.7c0.6,4,1.9,7.9,3.8,11.5c0.2,0.4,0.8,0.6,1.2,0.3
			c0.4-0.2,0.6-0.7,0.3-1.1c-1.9-3.8-3.2-8-3.8-12.2c-0.4-3.3,1.2-6.7,1.1-10.2c0-0.5-0.5-0.9-0.9-0.8
			C371.1-94.1,370.8-93.8,370.7-93.3z"/>
	</g>
	<g id="Group_114256" transform="translate(6.199 53.798)">
		<path id="Path_84409" class="st0" d="M370.3-93.3c-0.1,3-0.7,6-0.5,9.1c0.3,3.3,1.2,6.6,1.1,9.9c-0.1,1.1,1.6,1.1,1.8,0
			c0.1-3-0.5-6-1-8.9c-0.4-3.3,0.3-6.6,0.4-9.9C372.1-94.4,370.3-94.4,370.3-93.3L370.3-93.3z"/>
	</g>
	<g id="Group_114257" transform="translate(9.38 55.338)">
		<path id="Path_84410" class="st0" d="M371.3-93.9L371.3-93.9c-0.4,0.4-0.8,0.9-1.1,1.4c6,2.9,12.2,5.6,18.4,7.8
			c8,2.6,15.3,7.1,23.9,7.3c1.1,0,1.1-1.6,0-1.8c-7.6-0.1-14.2-3.8-21.3-6.4c-6.9-2.6-13.6-5.4-20.2-8.4c-0.8-0.4-1.8,0.7-1.1,1.4
			l0,0C370.9-92,372-93.2,371.3-93.9L371.3-93.9z"/>
	</g>
	<g id="Group_114258" transform="translate(10.098 59.891)">
		<path id="Path_84411" class="st0" d="M370.4-92.4c6.5,1.9,12.8,5.6,19.1,8c7.3,2.6,15.1,4,22.4,6.7c1.1,0.4,1.5-1.2,0.4-1.6
			c-6.5-2.5-13.3-4-19.9-5.9c-7.5-2.2-14.1-6.6-21.6-8.8C369.8-94.5,369.3-92.8,370.4-92.4L370.4-92.4z"/>
	</g>
	<g id="Group_114259" transform="translate(9.284 63.631)">
		<path id="Path_84412" class="st0" d="M370.4-92.5c7.1,1.5,13.8,5.9,20.5,8.5c7.2,2.7,14.6,4.1,21.8,6.6c1.1,0.4,1.5-1.4,0.4-1.6
			c-7.2-2.5-14.7-3.8-21.8-6.6c-6.9-2.6-13.3-7-20.5-8.5C369.8-94.4,369.3-92.7,370.4-92.5z"/>
	</g>
	<g id="Group_114260" transform="translate(12.819 69.908)">
		<path id="Path_84413" class="st0" d="M370.4-92.4c8.3,3,17.1,5.5,25.2,9.1c4.7,2.1,10.9,2.7,15.2,5.5c0.9,0.5,1.8-1,0.8-1.5
			c-4.7-3.2-11.5-4-16.7-6.2c-7.7-3.3-16.1-5.6-24-8.5C369.8-94.5,369.3-92.8,370.4-92.4z"/>
	</g>
	<g id="Group_114261" transform="translate(52.552 20.359)">
		<path id="Path_84414" class="st0" d="M371.3-42.6c8.3-7.7,12.6-18.7,19.8-27.2c6.1-7.1,11.3-14.8,15.6-23.1c0.5-1-0.9-1.9-1.5-0.8
			c-4.7,8.7-10.3,16.8-16.7,24.3c-6.8,8.1-10.7,18.4-18.6,25.7C369.3-43,370.5-41.8,371.3-42.6L371.3-42.6z"/>
	</g>
	<g id="Group_114262" transform="translate(52.462 26.259)">
		<path id="Path_84415" class="st0" d="M406.3-93.7c-4.1,9.6-12.1,17-18,25.2c-3.1,4.4-5.8,8.9-9.1,13.2c-3.1,4.1-4.3,11.5-9,14.1
			c-1,0.5-0.1,2.1,0.8,1.5c2.8-1.6,4.3-5.1,5.8-7.8c3.1-5.8,7.2-10.8,10.4-16.5c5.8-10.2,15.9-17.8,20.5-29
			C408.2-93.8,406.7-94.8,406.3-93.7L406.3-93.7z"/>
	</g>
	<g id="Group_114263" transform="translate(53.892 30.245)">
		<path id="Path_84416" class="st0" d="M406.1-93.8c-2.5,3-4.7,6.2-6.6,9.6c-3.7,5.9-7.9,11.1-12.1,16.6c-3.5,4.1-6.6,8.5-9.4,13.2
			c-2.7,5.1-4.1,10.7-8,15.1c-0.7,0.8,0.4,2.1,1.2,1.2l0.9-1c0.3-0.3,0.3-0.9,0-1.2s-0.9-0.3-1.2,0c-0.3,0.4-0.6,0.7-0.9,1l1.2,1.2
			c2.4-2.7,3.9-6,5.6-9.3c1.4-2.6,2.3-5.5,3.7-8.1c1.4-2.5,3.7-4.8,5.3-7.1c3.5-5.2,8-9.5,11.5-14.7c3.4-4.9,5.8-10.4,9.8-15.1
			C408.1-93.5,406.9-94.8,406.1-93.8L406.1-93.8z"/>
	</g>
</g>
<g id="Group_116434" transform="translate(1331.832 228.576) rotate(-2)" class="st1">
	<g id="Group_114247-2" transform="translate(28.836 0.067)">
		<path id="Path_84400-2" class="st0" d="M-2335.1-373.2c4.9,0.4,9.2,2.9,13.7,4.6c5.4,2,11.3,2,16.8,3.6c0.3,0.1,0.6-0.1,0.7-0.4
			c0.1-0.3-0.1-0.6-0.4-0.7c-5.5-1.6-11.3-1.8-16.8-3.6c-4.7-1.6-9-4.3-14-4.6C-2335.8-374.4-2335.8-373.3-2335.1-373.2
			L-2335.1-373.2z"/>
	</g>
	<g id="Group_114248-2" transform="translate(2.757 -0.001)">
		<path id="Path_84401-2" class="st0" d="M-2309.5-374c-3.9,6.6-9,12.5-13.8,18.3c-2.3,2.8-4.9,5.3-7.4,7.9c-2.1,2.2-3.2,4.7-4.9,7
			c-0.5,0.6,0.5,1.2,1,0.5c1.9-2.6,3.3-5.3,5.6-7.8c2.5-2.7,5.1-5.3,7.5-8.2c4.5-5.6,9.3-11.2,13-17.3
			C-2308.1-374-2309.1-374.7-2309.5-374L-2309.5-374z"/>
	</g>
	<g id="Group_114249-2" transform="translate(35.325 8.281)">
		<path id="Path_84402-2" class="st0" d="M-2311.1-374.1c-3.5,4.4-7.3,8.7-10.3,13.5c-2.3,3.7-4.6,7.7-6.9,11.4
			c-2.2,3.3-4.4,7.8-7.1,10.5c-0.2,0.2-0.2,0.6,0,0.8c0.2,0.2,0.6,0.2,0.8,0l0,0c2.2-2.2,3.7-5.3,5.4-7.8c2.6-3.7,5-7.7,7.2-11.5
			c3.4-5.7,7.6-10.8,11.7-16C-2309.9-373.8-2310.7-374.7-2311.1-374.1z"/>
	</g>
	<g id="Group_114250-2" transform="translate(2.768 33.825)">
		<path id="Path_84403-2" class="st0" d="M-2335.1-373.1c11.1,1.1,21.6,6.7,32.1,10c0.3,0.1,0.6-0.1,0.7-0.4
			c0.1-0.3-0.1-0.6-0.4-0.7c-10.5-3.4-21.2-9-32.4-10.1C-2335.8-374.3-2335.8-373.2-2335.1-373.1z"/>
	</g>
	<g id="Group_114251-2" transform="translate(-0.013 33.556)">
		<path id="Path_84404-2" class="st0" d="M-2333-374.1c-4.5,4.5-3.3,15.1,3,17.6c0.7,0.3,1-0.8,0.3-1.1c-5.4-2.1-6.3-11.9-2.5-15.6
			C-2331.6-373.8-2332.4-374.7-2333-374.1L-2333-374.1z"/>
	</g>
	<g id="Group_114252-2" transform="translate(5.274 50.148)">
		<path id="Path_84405-2" class="st0" d="M-2335.1-373.1c5.5,0.3,10.5,2.7,15.5,4.7c5.2,2,10.5,3.4,16,4.1c0.7,0.1,0.7-1.1,0-1.2
			c-5.9-0.8-11.7-2.4-17.3-4.6c-4.6-1.9-9.3-3.9-14.3-4.2C-2335.8-374.3-2335.8-373.1-2335.1-373.1L-2335.1-373.1z"/>
	</g>
	<g id="Group_114253-2" transform="translate(58.516 8.301)">
		<path id="Path_84406-2" class="st0" d="M-2334.5-373.9c-0.5,2.6-1.5,5.3-1,7.9c0.4,2,1.7,4.6,3.6,5.5c0.6,0.3,1.3-0.7,0.5-1
			c-1.7-0.7-2.6-3-3.1-4.7c-0.6-2.2,0.5-5.1,1-7.3C-2333.2-374.3-2334.3-374.6-2334.5-373.9L-2334.5-373.9z"/>
	</g>
	<g id="Group_114254-2" transform="translate(36.853 21.047)">
		<path id="Path_84407-2" class="st0" d="M-2310.4-374.1c-2.5,2.3-4,5.7-6.1,8.4c-2.1,2.6-4,5.2-5.9,7.9c-2.3,3.3-4.9,6.3-6.9,9.9
			c-2.3,3.8-3.2,8.6-6.2,11.9c-0.2,0.2-0.2,0.6,0,0.8s0.6,0.2,0.8,0l0,0c2.1-2.3,3.2-5.2,4.5-8c1.6-3.6,3.7-7.1,6.1-10.2
			c2.5-3.4,4.5-7.3,7.4-10.3c2.7-2.8,4.1-6.8,7-9.4c0.3-0.2,0.3-0.6,0.1-0.9S-2310.1-374.4-2310.4-374.1
			C-2310.4-374.2-2310.4-374.1-2310.4-374.1L-2310.4-374.1z"/>
	</g>
	<g id="Group_114255-2" transform="translate(34.297 43.935)">
		<path id="Path_84408-2" class="st0" d="M-2335-373.7c0.1,2.6-1,5.1-0.5,7.8c0.4,2.7,1.3,5.3,2.5,7.7c0.2,0.3,0.5,0.4,0.8,0.2
			c0.3-0.2,0.3-0.5,0.2-0.7c-1.3-2.5-2.1-5.3-2.5-8.1c-0.3-2.2,0.8-4.5,0.7-6.7c0-0.3-0.3-0.6-0.6-0.6
			C-2334.7-374.3-2335-374-2335-373.7L-2335-373.7z"/>
	</g>
	<g id="Group_114256-2" transform="translate(4.105 35.75)">
		<path id="Path_84409-2" class="st0" d="M-2335.3-373.8c-0.1,2-0.5,4-0.4,6c0.2,2.2,0.8,4.4,0.7,6.6c-0.1,0.7,1.1,0.7,1.2,0
			c0-2-0.2-4-0.6-5.9c-0.3-2.2,0.2-4.4,0.3-6.6C-2334.1-374.5-2335.3-374.5-2335.3-373.8z"/>
	</g>
	<g id="Group_114257-2" transform="translate(6.219 36.773)">
		<path id="Path_84410-2" class="st0" d="M-2334.6-374.1L-2334.6-374.1c-0.3,0.3-0.5,0.6-0.7,0.9c4,2,8.1,3.7,12.3,5.2
			c5.3,1.7,10.2,4.7,15.9,4.8c0.7,0,0.7-1.1,0-1.2c-5-0.1-9.5-2.6-14.2-4.3c-4.6-1.7-9-3.6-13.4-5.6c-0.5-0.3-1.2,0.5-0.7,0.9l0,0
			C-2334.9-372.9-2334.1-373.7-2334.6-374.1L-2334.6-374.1z"/>
	</g>
	<g id="Group_114258-2" transform="translate(6.695 39.799)">
		<path id="Path_84411-2" class="st0" d="M-2335.2-373.2c4.3,1.3,8.5,3.7,12.7,5.3c4.9,1.7,10,2.6,14.9,4.5c0.7,0.3,1-0.8,0.3-1.1
			c-4.3-1.6-8.8-2.6-13.3-3.9c-5-1.5-9.4-4.4-14.3-5.8C-2335.6-374.5-2336-373.4-2335.2-373.2z"/>
	</g>
	<g id="Group_114259-2" transform="translate(6.153 42.284)">
		<path id="Path_84412-2" class="st0" d="M-2335.2-373.2c4.7,1,9.2,3.9,13.6,5.6c4.8,1.8,9.7,2.7,14.5,4.4c0.7,0.3,1-0.9,0.3-1.1
			c-4.8-1.6-9.7-2.5-14.5-4.4c-4.6-1.7-8.8-4.6-13.6-5.6C-2335.6-374.5-2336-373.4-2335.2-373.2z"/>
	</g>
	<g id="Group_114260-2" transform="translate(8.5 46.455)">
		<path id="Path_84413-2" class="st0" d="M-2335.3-373.2c5.5,2,11.4,3.6,16.8,6c3.2,1.4,7.2,1.8,10.1,3.6c0.6,0.4,1.2-0.6,0.5-1
			c-3.2-2.1-7.7-2.6-11.1-4.1c-5.1-2.2-10.7-3.7-16-5.7C-2335.6-374.5-2336-373.4-2335.3-373.2z"/>
	</g>
	<g id="Group_114261-2" transform="translate(34.92 13.516)">
		<path id="Path_84414-2" class="st0" d="M-2334.6-340c5.5-5.1,8.4-12.4,13.2-18.1c4-4.7,7.5-9.8,10.4-15.3c0.4-0.6-0.6-1.3-1-0.5
			c-3.1,5.8-6.8,11.2-11.1,16.1c-4.5,5.4-7.1,12.2-12.4,17.1C-2336-340.3-2335.2-339.5-2334.6-340L-2334.6-340z"/>
	</g>
	<g id="Group_114262-2" transform="translate(34.858 17.437)">
		<path id="Path_84415-2" class="st0" d="M-2311.4-374c-2.7,6.4-8,11.3-12,16.8c-2.1,2.9-3.9,5.9-6,8.8c-2.1,2.7-2.9,7.7-6,9.4
			c-0.6,0.4-0.1,1.4,0.5,1c1.9-1.1,2.9-3.4,3.9-5.2c2.1-3.8,4.8-7.2,6.9-10.9c3.9-6.8,10.6-11.9,13.6-19.2
			C-2310.1-374.1-2311.1-374.7-2311.4-374z"/>
	</g>
	<g id="Group_114263-2" transform="translate(35.808 20.086)">
		<path id="Path_84416-2" class="st0" d="M-2311.5-374.1c-1.7,2-3.1,4.1-4.4,6.4c-2.4,3.9-5.2,7.4-8,11c-2.3,2.7-4.4,5.7-6.2,8.8
			c-1.8,3.4-2.7,7.1-5.3,10c-0.5,0.5,0.3,1.4,0.8,0.8l0.6-0.6c0.2-0.2,0.2-0.6,0-0.8s-0.6-0.2-0.8,0l0,0c-0.2,0.2-0.4,0.4-0.6,0.6
			l0.8,0.8c1.5-1.9,2.8-4,3.7-6.2c0.9-1.7,1.5-3.6,2.4-5.4c1.1-1.6,2.3-3.2,3.5-4.7c2.3-3.5,5.3-6.3,7.7-9.8c2.3-3.3,3.9-6.9,6.5-10
			C-2310.2-373.9-2311-374.7-2311.5-374.1L-2311.5-374.1z"/>
	</g>
</g>
<g id="Group_116428" transform="matrix(-0.839, 0.545, -0.545, -0.839, 1384.461, 67.37)" class="st2">
	<g id="Group_115705" transform="translate(0.258 15.178)">
		<path id="Path_85762" class="st0" d="M1217.4,506.5c19.1,0,38,0.2,56.9,0.1c1.1,0,1.1,1.8,0,1.8c-19.1,0.1-38,0.1-56.9-0.1
			C1216.3,508.2,1216.3,506.5,1217.4,506.5z"/>
	</g>
	<g id="Group_115706" transform="translate(-0.06 11.43)">
		<path id="Path_85763" class="st0" d="M1217.1,509.9c1.2-0.4,2.4-0.8,3.5-1.2c0.7-0.3,1.5-0.7,2.2-1c0.3-0.1,0.7-0.3,1-0.6
			c0.3-0.1,0.4-0.4,0.3-0.1c0.1-0.4,0.6-0.7,1.1-0.6c0.4,0.1,0.7,0.5,0.6,1c-0.3,1.1-2.3,1.8-3.3,2.2c-1.6,0.8-3.3,1.4-5,1.9
			C1216.6,512,1216.1,510.2,1217.1,509.9z"/>
	</g>
	<g id="Group_115707" transform="translate(0.945 14.564)">
		<path id="Path_85764" class="st0" d="M1218,506.7c1.9,1.8,4.9,2.3,7.2,3.2c1.1,0.4,0.5,2-0.4,1.6c-2.6-1.1-5.8-1.7-8-3.6
			C1216,507.2,1217.2,506,1218,506.7z"/>
	</g>
	<g id="Group_115708" transform="translate(42.126 -0.222)">
		<path id="Path_85765" class="st0" d="M1218.3,507.3c-0.1,25.8,0.5,51.6,0.7,77.3h-1.8v-0.7c0-0.5,0.5-0.9,0.9-0.8
			c0.4,0,0.8,0.4,0.8,0.8v0.7c0,0.5-0.5,0.9-0.9,0.8c-0.4,0-0.8-0.4-0.8-0.8c0-25.7-0.7-51.6-0.7-77.3c0-0.5,0.5-0.8,1-0.8
			C1217.9,506.5,1218.3,506.9,1218.3,507.3z"/>
	</g>
	<g id="Group_115709" transform="translate(39.323 70.477)">
		<path id="Path_85766" class="st0" d="M1218.2,506.9c0.7,1.4,1.6,2.5,2.4,3.8c0.4,1.2,0.8,2.4,1.1,3.7c0.4,1.1-1.4,1.5-1.6,0.4
			c-0.3-1.3-0.7-2.5-1.2-3.7c-0.7-1.2-1.5-2.2-2.2-3.4c-0.2-0.4,0-0.9,0.4-1.1C1217.5,506.4,1217.9,506.5,1218.2,506.9L1218.2,506.9
			z"/>
	</g>
	<g id="Group_115710" transform="translate(42.681 71.444)">
		<path id="Path_85767" class="st0" d="M1218.6,513.8c-0.1,0.5-0.5,0.8-1,1c-0.7,0.3-1.2-0.5-1.1-1.1c0.6-2.7,2.7-4.7,4.3-6.9
			c0.7-1,2.2,0,1.5,0.8c-1.4,2.1-3.6,3.8-4.1,6.4l-1.1-1.1l-0.3,0.3C1217.1,512.3,1218.9,512.7,1218.6,513.8z"/>
	</g>
	<g id="Group_115711" transform="translate(6.79 16.731)">
		<path id="Path_85768" class="st0" d="M1243.2,557.4c0-8.5-8.1-9.1-14.6-9.8c-2-0.1-3.9-0.4-5.8-0.8c-2.7-0.7-4.9-2.4-5.4-4.2
			c-0.4-1.2,0.2-2.6,1.4-3.8c3-2.8,6.8-4.1,10.5-5.5c0.8-0.3,1.7-0.6,2.6-0.8c2.7-0.7,6.1-1.7,7-3.9c0.4-1,0.3-2.1-0.3-3
			c-1.5-3-4.6-4.1-7.6-4.7c-0.9-0.1-1.7-0.8-2-1.6c-0.3-0.8-0.1-1.7,0.4-2.3c1.5-2.2,5.1-2.9,7-3.2h1c2.3,0,4.4-0.2,5.2-1.4
			c0.4-0.5,0.4-1.1,0.1-1.6c-0.4-1.1-1.4-1.6-2.2-2.3c-0.6-0.4-1.2-1-1.6-1.6c-0.1-0.3-0.4-0.4-0.6-0.3l0,0
			c-0.3,0.1-0.4,0.4-0.3,0.6l0,0c0.5,0.8,1.2,1.5,2,2c0.8,0.4,1.4,1.1,1.8,1.9c0.1,0.5,0,0.7,0,0.7c-0.5,0.8-3,0.8-4.2,0.8h-1.1
			c-2.2,0.3-6,1-7.8,3.6c-0.7,0.9-0.9,2.2-0.6,3.3c0.5,1.2,1.6,2,2.8,2.2c2.9,0.7,5.6,1.6,6.9,4.2c0.4,0.7,0.5,1.5,0.3,2.2
			c-0.7,1.6-4,2.6-6.3,3.2c-1,0.2-1.9,0.5-2.7,1c-3.7,1.4-7.6,2.8-10.8,5.7c-1.4,1.2-2.1,3.1-1.7,4.9c0.7,2.6,3.7,4.4,6.1,5
			c2,0.4,4,0.7,6,0.8c6.9,0.6,14.1,1.3,13.7,9.4c0,0.3,0.2,0.5,0.5,0.5s0.5-0.3,0.5-0.6C1243.2,557.8,1243.2,557.7,1243.2,557.4z"/>
	</g>
</g>
<g id="Group_117512" transform="translate(141.987 265.185)">
	<path id="Path_83113" class="st3" d="M-2339.1-290.5c-0.1,0-0.2,0-0.4,0c5.3,1.2,10.5,2.2,15.7,4l0.3-0.3c-4.8-2.4-10.7-3.5-16-4.2
		c0.2,0,0.3,0.1,0.4,0.1c0.1,0,0.1,0.1,0.1,0.2C-2338.9-290.5-2339-290.5-2339.1-290.5z"/>
	<path id="Path_83114" class="st3" d="M-2331-270.2c0,0.1,0.1,0.2,0.1,0.2c3.2,2.2,6.4,4.3,9.8,6.3c4.1,2.4,8.2,4.6,12.3,6.8
		c4,2.1,8.2,3.4,12.5,5c0.2,0.1,0.3-0.2,0.1-0.3c-4.3-2.1-8.9-3.3-13.1-5.6c-3.9-2.1-7.8-4.2-11.5-6.4c-7.4-4.3-14.3-9.3-20.6-15
		c-0.1,0.1-0.2,0.1-0.3,0.1l0,0c-0.2-0.1-0.4-0.2-0.5-0.3c3.4,3.3,7.1,6.3,11,9.1C-2331.2-270.4-2331.1-270.3-2331-270.2
		L-2331-270.2z"/>
	<path id="Path_83115" class="st3" d="M-2293.4-250.7c6.3,2.4,27.9,8.6,25.4-0.3c0-0.1-0.1-0.2-0.2-0.1l0,0c0.1,0.4,0.2,0.8,0.2,1.2
		c0,0.1-0.1,0.2-0.2,0.2c-0.1,0-0.1,0-0.1-0.1s0-0.1-0.1-0.2c-0.8,7.8-22.1,0.2-26.3-1.5c-0.2-0.1-0.3,0.2-0.1,0.3s0.4,0.2,0.7,0.3
		c0,0,0.1,0,0.1-0.1C-2293.7-251.3-2293.4-251-2293.4-250.7z"/>
	<path id="Path_83116" class="st3" d="M-2269.3-253.9c-3.9-5.1-9.5-8.6-14.4-12.8c-0.1-0.1-0.3,0.1-0.2,0.2
		c4.9,4.4,10.3,8.1,14.6,13.2c0,0,0.1,0,0.1,0.1c-0.1-0.2-0.1-0.3-0.2-0.5C-2269.4-253.7-2269.4-253.8-2269.3-253.9L-2269.3-253.9z"
		/>
	<path id="Path_83117" class="st3" d="M-2289.2-255.6c-3.8-0.7-7.3-2.2-11-3.1c-0.2,0-0.3,0.2-0.1,0.2c3.5,1.2,7,2.3,10.6,3.2
		c2,0.4,4.5,0.8,6.4,0.2c4.5-1.4,0.4-5.9-1.6-7.6c-0.1-0.1-0.3,0.1-0.2,0.2c1.4,1.4,5.2,4.3,2.6,6.5c-1.2,1.1-3.5,0.8-4.9,0.6
		c-0.6-0.1-1.1-0.1-1.7-0.2C-2289.1-255.6-2289.1-255.6-2289.2-255.6z"/>
	<path id="Path_83118" class="st3" d="M-2306.4-261.3c0.3,0.2,0.6,0.3,1,0.4c0.2,0.1,0.2-0.2,0.1-0.2c-0.3-0.1-0.6-0.2-0.9-0.4
		C-2306.4-261.6-2306.5-261.4-2306.4-261.3z"/>
	<path id="Path_83119" class="st3" d="M-2330.1-275.3c0.8,0.7,1.7,1.3,2.5,1.9c3.9,2.9,8,5.6,12.2,8.1c0.2,0.1,0.3-0.1,0.2-0.3
		c-4.9-3.3-10.1-6.2-14.6-10.1c0,0.1,0,0.1-0.1,0.2C-2329.9-275.3-2330-275.3-2330.1-275.3L-2330.1-275.3z"/>
	<path id="Path_83120" class="st3" d="M-2330.1-275.9c-0.1-0.1-0.2-0.1-0.2-0.2c-1.6-1.4-6.2-5.7-3-7.7c1.8-1.1,4.8-0.1,7-0.1
		c0.1-0.1,0.2-0.3,0.3-0.4c-2.4-0.1-5.9-1.3-8,0.3c-1.6,1.2-0.8,3.3,0.1,4.7c1,1.5,2.3,2.8,3.7,4v-0.1
		C-2330.2-275.6-2330.2-275.8-2330.1-275.9z"/>
	<path id="Path_83121" class="st3" d="M-2307-261.5c-2.2-1.2-4.5-2.2-6.8-3.2c-0.2-0.1-0.3,0.2-0.2,0.3c2.1,1.3,4.4,2.4,6.8,3.2
		C-2307-261.2-2306.9-261.4-2307-261.5z"/>
	<path id="Path_83122" class="st3" d="M-2304.5-259.9c0.4,0.1,0.8,0.3,1.1,0.5c0.3,0.2,0.7,0.3,1.1,0.3c0.1,0,0.2-0.1,0.2-0.2
		c0-0.1,0-0.1-0.1-0.1c-0.3-0.2-0.7-0.3-1-0.4c-0.4-0.1-0.8-0.3-1.2-0.4c-0.1,0-0.2,0-0.2,0.1
		C-2304.6-260-2304.6-259.9-2304.5-259.9z"/>
	<path id="Path_83123" class="st3" d="M-2326-284.3c-0.1,0.1-0.2,0.3-0.3,0.4c-2,2.2-3.3,5-3.8,8c0,0.1,0,0.3-0.1,0.4v0.1l0.1,0.1
		c0.1,0,0.2,0,0.2-0.1l0,0c0-0.1,0-0.1,0.1-0.2c1.1-4.1,3.5-7.8,6.8-10.6c3.5-2.9,7.5-4.4,11.7-5.7c-0.1,0-0.1,0-0.2,0
		c-0.1,0-0.2-0.1-0.2-0.2v-0.1c-4.3,0.8-8.4,2.7-11.8,5.5l-0.3,0.3C-2324.6-285.8-2325.3-285.1-2326-284.3z"/>
	<path id="Path_83124" class="st3" d="M-2311.4-291.9c0.1,0,0.1,0,0.2,0c0.7,0,1.5,0.1,2.2,0.2c0.6,0.1,1.2,0,1.7-0.2
		c-0.2,0-0.4,0-0.6,0s-0.2-0.3,0-0.3h0.1c-0.6,0-1.2,0-1.9-0.1c-0.6-0.2-1.2-0.1-1.8,0.1c0,0,0,0-0.1,0.1s0,0.2,0,0.3
		C-2311.5-291.9-2311.5-291.9-2311.4-291.9z"/>
	<path id="Path_83125" class="st3" d="M-2308-292c0.2,0,0.4,0,0.6,0c3,0,6,0.7,8.8,2c2.4,1.3,4.7,2.8,6.8,4.6c0-0.1,0.2-0.2,0.3-0.1
		c0.1,0,0.1,0.1,0.1,0.1c0,0.1,0.1,0.2,0.1,0.3c0.1,0,0.2-0.2,0.1-0.3c0,0,0,0,0-0.1c-3.5-4.4-11.1-7.9-16.7-6.8h-0.1
		C-2308.2-292.3-2308.2-292-2308-292z"/>
	<path id="Path_83126" class="st3" d="M-2291.8-285.4v0.1c0.3,0.9,0.8,1.7,1.6,2.2c0.5,0.4,0.9,0.8,1.4,1.3c0.3,0.4,0.6,0.9,0.9,1.4
		c0.1,0,0.1,0,0.2,0c0.1,0.1,0.1,0.2,0.2,0.3c0.1,0,0.1-0.1,0.1-0.2c-0.1-2.2-2.8-3.1-3.8-4.8c-0.1-0.1-0.1-0.2-0.1-0.3
		c-0.1-0.1-0.2-0.2-0.3-0.1C-2291.8-285.5-2291.8-285.5-2291.8-285.4z"/>
	<path id="Path_83127" class="st3" d="M-2288-280.5c-0.1,0-0.1,0.1-0.1,0.2c1.6,4.1,3.1,7.7,3,12.2c-0.1,4.4-1.6,8.6-4.2,12.1
		c-0.1,0.1,0,0.3,0.1,0.4c0.1,0,0.1,0,0.2,0c0.1,0,0.1,0,0.2-0.1c3.1-3.2,4.4-8,4.4-12.4c0-3.9-0.7-8.9-3.1-12.2
		c-0.1-0.1-0.1-0.2-0.2-0.3C-2287.9-280.5-2287.9-280.5-2288-280.5z"/>
	<path id="Path_83128" class="st3" d="M-2326.2-255c-1.7-2.5-3-5.2-3.8-8.1c-0.6-2.2,0-4.8-0.9-6.9c0-0.1-0.1-0.2-0.1-0.2
		c-0.1-0.1-0.2-0.1-0.3-0.1l0,0c-0.1,0-0.1,0.1-0.1,0.2c0.7,2.8,0.3,5.6,1.1,8.4c0.8,2.5,1.7,5.2,3.7,6.9
		C-2326.5-254.9-2326.4-255-2326.2-255C-2326.3-255-2326.3-255-2326.2-255z"/>
	<path id="Path_83129" class="st3" d="M-2322.9-251.7c0.1,0.1,0.2,0.1,0.3,0.2c-0.6-1.7-1.9-3-3.6-3.5c-0.1,0-0.2,0-0.3,0.2v0.1
		c0,0.1,0.1,0.1,0.1,0.2c0.8,0.4,1.5,0.9,2.1,1.5c0.4,0.5,0.7,0.9,1,1.4C-2323.2-251.7-2323.1-251.8-2322.9-251.7
		C-2323-251.7-2323-251.7-2322.9-251.7z"/>
	<path id="Path_83130" class="st3" d="M-2315-247.3c0.2,0.1,0.3,0.2,0.5,0.4c0-0.1,0-0.2-0.1-0.2c-1.3-0.7-2.7-1.1-4.1-1.8
		c-1.4-0.7-2.8-1.6-4-2.5c-0.1-0.1-0.2-0.1-0.3-0.2c-0.1-0.1-0.2,0-0.3,0c0,0,0,0,0,0.1s0,0.1,0,0.2c1.1,1.1,2.4,2.1,3.9,2.8
		c1.3,0.8,2.7,1.4,4.2,1.8l-0.1-0.1C-2315.4-247.2-2315.2-247.5-2315-247.3z"/>
	<path id="Path_83131" class="st3" d="M-2310.3-246c-0.6,0.1-1.2,0.1-1.8,0.1c-0.9-0.1-1.7-0.4-2.4-1c-0.2-0.1-0.3-0.2-0.5-0.4
		s-0.4,0.1-0.3,0.3l0.1,0.1c1.3,1.8,3.9,1.9,5.8,1.2l0.1-0.1c-0.3,0-0.6,0.1-0.9,0.1C-2310.4-245.6-2310.5-246-2310.3-246z"/>
	<path id="Path_83132" class="st3" d="M-2293.4-250.7c0-0.3-0.3-0.6-0.5-0.3c0,0-0.1,0-0.1,0.1c-2.3,1.9-4.9,3.2-7.8,3.9
		c-2.8,0.8-5.7,0.1-8.5,1c-0.2,0.1-0.2,0.4,0.1,0.4c0.3-0.1,0.6-0.1,0.9-0.1c2.9-0.3,5.7,0,8.6-0.9c2.6-0.7,5.1-2,7.1-3.8
		C-2293.4-250.6-2293.4-250.6-2293.4-250.7z"/>
	<path id="Path_83133" class="st3" d="M-2341.5-279.1c0-0.1,0-0.2,0-0.2c-1.7-2.3-4.2-4-4.9-6.9c-1.2-4.5,3.9-4.6,7-4.3
		c0.1,0,0.2,0,0.4,0c0.1,0,0.2-0.1,0.2-0.2s0-0.1-0.1-0.1c-0.1-0.1-0.3-0.1-0.4-0.1c-2.7-0.8-7.2-0.5-7.8,2.9
		c-0.5,3,2.4,6.9,4.9,8.7c0.2,0.1,0.4,0.2,0.5,0.3C-2341.7-278.9-2341.5-279-2341.5-279.1L-2341.5-279.1z"/>
	<path id="Path_83134" class="st3" d="M-2278-249.2c-0.1,0-0.2,0-0.2,0.1s0,0.2,0.1,0.2l0,0c2,0.9,11.1,0.6,8.4-3.5
		c-0.1-0.1-0.4,0-0.3,0.1C-2268.9-248.4-2275.7-248.5-2278-249.2z"/>
	<path id="Path_83135" class="st3" d="M-2344.1-288.5c0.1,0,0.1-0.2,0.1-0.3c0-0.1-0.1-0.1-0.2-0.1c-4.7,2.1,8.2,13.3,10.4,14.6
		c0.1,0,0.1,0,0.2,0c0-0.1,0-0.1,0-0.2C-2335.4-276-2347.9-286.4-2344.1-288.5z"/>
	<path id="Path_83136" class="st3" d="M-2331.2-287.8c-3.7-1.1-8.1-2.6-11.9-1.8c-0.1,0-0.1,0.1-0.1,0.2s0.1,0.1,0.2,0.1
		c4.1-0.2,7.8,0.9,11.8,1.8C-2331.1-287.5-2331-287.8-2331.2-287.8z"/>
	<path id="Path_83137" class="st3" d="M-2328.5-286.6c0.3,0.1,0.4-0.3,0.2-0.4c-0.5-0.2-1-0.4-1.5-0.6c-0.2-0.1-0.3,0.2-0.1,0.3
		C-2329.5-287-2329-286.8-2328.5-286.6z"/>
	<path id="Path_83138" class="st3" d="M-2333.4-285.2c0.2-0.1,0.1-0.3-0.1-0.3c-1.3,0.2-3,0.8-3.3,2.4c-0.2,1.5,0.9,3.2,1.7,4.3
		c0.1,0.1,0.2,0.1,0.2,0c0.1,0,0.1-0.1,0-0.2c-0.6-1.1-1.4-2.2-1.6-3.5C-2336.5-284.3-2334.7-284.8-2333.4-285.2z"/>
	<path id="Path_83139" class="st3" d="M-2329.1-273.7c-1.5-1.1-2.9-2.3-4.2-3.6c-0.1-0.1-0.2-0.1-0.2,0c-0.1,0.1-0.1,0.2,0,0.2l0,0
		c1.3,1.4,2.7,2.6,4.2,3.7C-2329.1-273.3-2329-273.6-2329.1-273.7z"/>
	<path id="Path_83140" class="st3" d="M-2316.5-262.9c0.2,0.1,0.3-0.2,0.2-0.3c-5.5-3.1-10.6-6.9-16.1-10c-0.2-0.1-0.3,0.1-0.2,0.2
		C-2327.5-269.4-2322.1-265.6-2316.5-262.9z"/>
	<path id="Path_83141" class="st3" d="M-2314.7-262.1c-0.2-0.1-0.4,0.1-0.2,0.3c0.2,0.2,0.4,0.4,0.7,0.5c0.2,0.2,0.5,0.2,0.7,0.2
		c0.1,0,0.2-0.1,0.1-0.2v-0.1c-0.2-0.1-0.4-0.2-0.6-0.3C-2314.3-261.9-2314.5-262-2314.7-262.1z"/>
	<path id="Path_83142" class="st3" d="M-2309.2-260.7c-5.5-2.9-10.7-6.1-15.7-9.7c-0.2-0.1-0.3,0.1-0.2,0.2c4.9,3.8,10.1,7,15.7,9.6
		C-2309.2-260.4-2309.1-260.6-2309.2-260.7z"/>
	<path id="Path_83143" class="st3" d="M-2282.5-262.1c2.1,2.1,8.1,5.5,6.9,9.2c0,0.1,0,0.2,0.1,0.3c0.1,0,0.2,0,0.3-0.1
		c1.6-3.8-4.9-7.5-7-9.5C-2282.4-262.4-2282.6-262.2-2282.5-262.1z"/>
	<path id="Path_83144" class="st3" d="M-2279.4-261.6c-0.1-0.1-0.3,0.1-0.2,0.2c1.6,1.6,10.1,7.5,6.3,9.7c-0.1,0.1-0.1,0.2-0.1,0.3
		s0.2,0.1,0.3,0.1C-2268.1-253.3-2278-260.3-2279.4-261.6z"/>
	<path id="Path_83145" class="st3" d="M-2289.5-252c-5.9-1.9-11.8-4.1-17.5-6.5c-0.2-0.1-0.3,0.2-0.1,0.3c5.5,2.6,11.2,4.9,16.9,6.8
		C-2290.2-251.8-2289.9-252-2289.5-252z"/>
	<path id="Path_83146" class="st3" d="M-2289-251.1c2.5,0.7,5.2,1.3,7.8,1.5c0.2,0,0.2-0.2,0-0.3c-2.8-0.6-5.4-1.3-8.1-2.1
		C-2289-251.7-2288.9-251.4-2289-251.1z"/>
	<path id="Path_83147" class="st3" d="M-2339.8-287.2c0.2,0,0.1-0.3,0-0.3c-1.1,0-2.2,0.4-2,1.8s0.9,2.7,2,3.7
		c0.1,0.1,0.3-0.1,0.3-0.2C-2340.2-283.8-2343.2-286.8-2339.8-287.2z"/>
	<path id="Path_83148" class="st3" d="M-2338.8-285c-0.2,0.2-0.2,0.5-0.1,0.8c0,0.1,0.2,0.2,0.3,0c0.1-0.4,0-0.8,0.6-0.9
		c0.2,0,0.2-0.3,0-0.3C-2338.4-285.4-2338.7-285.3-2338.8-285z"/>
	<path id="Path_83149" class="st3" d="M-2337.1-280c-0.2-0.2-0.4-0.3-0.5-0.5c-0.2-0.2-0.4,0.1-0.3,0.2c0.2,0.2,0.3,0.4,0.5,0.5
		c0.1,0.1,0.3,0.4,0.5,0.4c0.1,0,0.3-0.1,0.2-0.2C-2336.7-279.7-2336.9-279.9-2337.1-280z"/>
	<path id="Path_83150" class="st3" d="M-2307.9-254.3c-0.8-0.6-1.7-1-2.6-1.2c-0.1,0-0.2,0-0.2,0.1s0,0.2,0.1,0.2
		c0.9,0.4,1.7,0.8,2.6,1.2C-2307.9-253.9-2307.8-254.2-2307.9-254.3z"/>
	<path id="Path_83151" class="st3" d="M-2310.6-251.5c-1.1-0.9-2.3-1.6-3.7-2.1c-0.2-0.1-0.4,0.3-0.1,0.4c1.3,0.6,2.5,1.2,3.6,1.9
		C-2310.7-251.3-2310.6-251.3-2310.6-251.5C-2310.5-251.4-2310.5-251.5-2310.6-251.5z"/>
	<path id="Path_83152" class="st3" d="M-2313-250.6c0.1,0.1,0.3,0,0.2-0.2c-0.3-0.5-1-0.8-1.4-1.2c-0.2-0.1-0.4,0.1-0.2,0.3
		s0.4,0.4,0.7,0.6C-2313.5-250.9-2313.3-250.7-2313-250.6z"/>
	<path id="Path_83153" class="st3" d="M-2311-246.6c0.2,0.1,0.3-0.2,0.2-0.3c-3.5-1.9-7.4-2.7-10.6-5.3c-0.1-0.1-0.3,0.1-0.2,0.2
		C-2318.5-249.3-2314.5-248.3-2311-246.6z"/>
	<path id="Path_83154" class="st3" d="M-2312.9-254.8c0.1,0,0.2,0,0.2-0.1s0-0.1-0.1-0.2c-0.5-0.3-1.1-0.6-1.6-0.9
		c-0.2-0.1-0.4,0.2-0.2,0.3C-2314.1-255.3-2313.5-255-2312.9-254.8z"/>
	<path id="Path_83155" class="st3" d="M-2312.5-290.3c0.2,0,0.2-0.2,0.1-0.3c-0.2-0.1-0.5-0.1-0.7-0.1c-0.3,0.1-0.6,0.2-0.8,0.4
		c-0.1,0.1,0,0.3,0.1,0.3C-2313.4-290.2-2313-290.3-2312.5-290.3z"/>
	<path id="Path_83156" class="st3" d="M-2315.1-289.9c-4.5,1.1-9.6,4.9-11.7,9.2c-0.1,0.2,0.3,0.4,0.4,0.2c2.7-4,6.6-7.7,11.3-9.1
		C-2314.8-289.7-2314.9-290-2315.1-289.9z"/>
	<path id="Path_83157" class="st3" d="M-2319.7-285.8c-0.5,0.2-0.9,0.6-1.2,1.1c-0.1,0.1,0.1,0.3,0.2,0.2c0.4-0.3,0.8-0.6,1.2-0.9
		C-2319.3-285.6-2319.5-285.9-2319.7-285.8z"/>
	<path id="Path_83158" class="st3" d="M-2327.2-275.9c0.9-1.3,1.6-2.8,2.4-4.2c0.9-1.5,2.1-2.8,3.5-3.9c0.2-0.1,0-0.3-0.2-0.2
		c-2.7,2.1-4.8,4.9-6,8.1c0,0.1,0,0.2,0.1,0.2C-2327.3-275.8-2327.2-275.9-2327.2-275.9z"/>
	<path id="Path_83159" class="st3" d="M-2327.7-278.6c-0.2,0.7-0.4,1.4-0.7,2.1c0,0.1,0,0.2,0.1,0.2s0.1,0,0.2-0.1
		c0.5-0.7,0.8-1.4,0.9-2.3C-2327.2-278.9-2327.6-278.9-2327.7-278.6z"/>
	<path id="Path_83160" class="st3" d="M-2288.4-260.4c3.1-3.4,1.9-8.8,1.8-12.9c0-0.2-0.3-0.2-0.3,0c-0.4,4.6,0.8,8.5-1.7,12.7
		C-2288.8-260.4-2288.6-260.2-2288.4-260.4z"/>
	<path id="Path_83161" class="st3" d="M-2289.9-259.3c-0.1,0.2-0.2,0.4-0.3,0.6c-0.1,0.2-0.3,0.4-0.4,0.6c-0.1,0.1,0.1,0.3,0.2,0.2
		c0.4-0.3,0.7-0.8,0.8-1.3C-2289.5-259.4-2289.8-259.6-2289.9-259.3z"/>
	<path id="Path_83162" class="st3" d="M-2288.6-269.4c0-0.1-0.2-0.2-0.3-0.1c-0.1,0-0.1,0.1-0.1,0.2c0.5,3.9-0.7,7.8-3.4,10.6
		c-0.1,0.1,0,0.4,0.2,0.3C-2289.1-259.9-2287.7-266.2-2288.6-269.4z"/>
	<path id="Path_83163" class="st3" d="M-2293.6-259.2c1.3-1.3,2-3.1,1.8-4.9c0-0.1-0.1-0.2-0.2-0.2c-0.1,0-0.2,0.1-0.2,0.2
		c0.2,1.8-0.8,3.2-1.6,4.7C-2293.9-259.3-2293.7-259.1-2293.6-259.2z"/>
	<path id="Path_83164" class="st3" d="M-2303.1-290.5c-0.2,0-0.3,0.3,0,0.4c3.9,0.7,7.8,2.6,10,5.9c0.1,0.2,0.3,0,0.3-0.2
		C-2294.5-288-2299.4-289.9-2303.1-290.5z"/>
	<path id="Path_83165" class="st3" d="M-2291.4-282.7c-0.1-0.4-0.3-0.7-0.6-0.9c-0.2-0.2-0.5,0.1-0.3,0.2c0.2,0.2,0.4,0.5,0.5,0.8
		c0,0.1,0.1,0.1,0.2,0.1C-2291.5-282.5-2291.4-282.6-2291.4-282.7z"/>
	<path id="Path_83166" class="st3" d="M-2290.5-282.1c-0.2-0.2-0.4,0.1-0.3,0.2c0.4,0.4,0.9,0.9,1.3,1.4c0.3,0.5,0.6,1,0.9,1.6
		c0,0.1,0.2,0.1,0.2,0.1c0.1,0,0.1-0.1,0.1-0.2C-2288.4-280.2-2289.7-281.3-2290.5-282.1z"/>
	<path id="Path_83167" class="st3" d="M-2295.3-284.6c-1.3-1-2.6-1.9-4-2.7c-0.2-0.1-0.4,0.2-0.2,0.3c1.4,0.9,2.7,1.8,4.1,2.7
		c0.1,0,0.1,0,0.2,0C-2295.2-284.5-2295.2-284.6-2295.3-284.6z"/>
	<path id="Path_83168" class="st3" d="M-2293.7-283c-0.2-0.1-0.3,0.1-0.2,0.2c1.8,1.5,3.1,3.5,3.6,5.7c0,0.2,0.3,0.2,0.3,0
		C-2289.9-279.4-2292-281.6-2293.7-283z"/>
	<path id="Path_83169" class="st3" d="M-2319.5-282.8c-0.3,0.2-0.5,0.5-0.6,0.8c0,0.1,0,0.2,0.1,0.2h0.1c0.3-0.1,0.5-0.4,0.7-0.6
		l0,0C-2319.1-282.6-2319.3-283-2319.5-282.8z"/>
	<path id="Path_83170" class="st3" d="M-2325-273.8c0.2-1.3,0.7-2.7,1.3-3.9c0.7-1.2,1.6-2.2,2.6-3.2c0.1-0.1-0.1-0.4-0.2-0.2
		c-1.9,1.9-4.1,4.3-4,7.2C-2325.3-273.7-2325-273.6-2325-273.8z"/>
	<path id="Path_83171" class="st3" d="M-2323.8-273.1c1-1.9,1.2-4.1,3-5.6c0.2-0.1,0-0.4-0.2-0.3c-1.8,1.3-2.5,3.7-3.1,5.7
		c0,0.1,0,0.2,0.1,0.2C-2323.9-273-2323.8-273.1-2323.8-273.1z"/>
	<path id="Path_83172" class="st3" d="M-2318.9-278.7c-1.7,1.7-3.7,4.2-3.7,6.7c0,0.2,0.3,0.3,0.3,0.1c0.3-1.2,0.7-2.4,1.3-3.5
		c0.7-1.1,1.5-2.1,2.4-3C-2318.4-278.6-2318.7-278.9-2318.9-278.7z"/>
	<path id="Path_83173" class="st3" d="M-2321.2-273.3c-0.2,0.4-0.4,0.9-0.5,1.4c0,0.1,0.1,0.2,0.1,0.2c0.1,0,0.1,0,0.1-0.1
		c0.3-0.4,0.4-0.9,0.6-1.4C-2320.7-273.4-2321.1-273.5-2321.2-273.3z"/>
	<path id="Path_83174" class="st3" d="M-2296.8-259.5c2.2-2.1,1.7-6.7,1.3-9.4c0-0.2-0.3-0.1-0.3,0.1c0.3,3,0.6,6.5-1.2,9.1
		C-2297.1-259.5-2296.9-259.3-2296.8-259.5z"/>
	<path id="Path_83175" class="st3" d="M-2295.3-260.2c0.6-0.5,1-1.2,1.1-2c0-0.2-0.3-0.3-0.4-0.1c-0.2,0.7-0.6,1.3-1,1.9
		c0,0.1,0,0.2,0.1,0.2C-2295.4-260.1-2295.4-260.1-2295.3-260.2z"/>
	<path id="Path_83176" class="st3" d="M-2298-259.9c0.6-0.5,0.9-1.2,1-1.9c0-0.2-0.3-0.3-0.4,0c-0.1,0.3-0.2,0.6-0.3,0.9
		c-0.2,0.3-0.4,0.5-0.5,0.8c-0.1,0.1,0,0.2,0,0.2C-2298.1-259.8-2298.1-259.8-2298-259.9z"/>
	<path id="Path_83177" class="st3" d="M-2309.3-247.4c4.6,0.7,9.4-0.3,13.3-2.8c0.3-0.2-0.1-0.6-0.3-0.4c-3.9,2.6-8.5,3-13,2.9
		c-0.1,0-0.2,0.1-0.2,0.2C-2309.5-247.5-2309.4-247.5-2309.3-247.4z"/>
	<path id="Path_83178" class="st3" d="M-2308.5-249.3c-0.2,0.2,0.1,0.5,0.3,0.3s0.4-0.1,0.6,0c0.1,0,0.2,0,0.2-0.1v-0.1
		c-0.2-0.3-0.6-0.4-0.9-0.3C-2308.4-249.4-2308.4-249.4-2308.5-249.3z"/>
	<path id="Path_83179" class="st3" d="M-2305.8-249.1c2.7-0.1,5.3-0.7,7.7-1.8c0.3-0.1,0.1-0.5-0.2-0.4c-2.4,1-5,1.7-7.6,1.9
		C-2306.1-249.4-2306-249.1-2305.8-249.1z"/>
	<path id="Path_83180" class="st3" d="M-2302.3-251c0.5-0.1,1,0,1.5-0.2c0.1,0,0.2-0.3,0-0.3c-0.5-0.1-1.1-0.1-1.6,0.1
		C-2302.6-251.3-2302.5-251-2302.3-251z"/>
	<path id="Path_83181" class="st3" d="M-2329.3-267.6c-1.1,3.1,0.6,6.7,2,9.3c0,0.1,0.1,0.1,0.2,0c0.1,0,0.1-0.1,0.1-0.2
		c-1.2-2.8-2.9-6-2-9.1C-2328.9-267.7-2329.2-267.8-2329.3-267.6z"/>
	<path id="Path_83182" class="st3" d="M-2326.5-260c-0.3-2.2-1.3-4.2-1.1-6.5c0-0.1-0.1-0.2-0.2-0.2c-0.1,0-0.2,0.1-0.2,0.2
		c-0.4,2.2,0.5,4.6,1.2,6.6C-2326.7-259.8-2326.5-259.9-2326.5-260z"/>
	<path id="Path_83183" class="st3" d="M-2326.4-258.5c0.1,1.1,0.6,2.1,1.3,2.9c0.1,0.1,0.2,0.1,0.2,0c0,0,0.1-0.1,0-0.2
		c-0.5-0.9-0.9-1.8-1.2-2.8c0-0.1-0.1-0.1-0.2-0.1C-2326.3-258.6-2326.4-258.5-2326.4-258.5z"/>
	<path id="Path_83184" class="st3" d="M-2324.2-257.5c-1.3-2.4-1.9-5.1-1.7-7.8c0-0.1-0.1-0.1-0.2-0.1c-0.1,0-0.1,0-0.1,0.1
		c-0.2,2.8,0.4,5.5,1.7,7.9C-2324.4-257.2-2324.1-257.3-2324.2-257.5z"/>
	<path id="Path_83185" class="st3" d="M-2324.2-263.1c0.1-0.3,0.1-0.6,0.1-1c0-0.2-0.3-0.2-0.3,0c-0.1,0.3-0.1,0.7-0.1,1
		C-2324.5-262.9-2324.3-263-2324.2-263.1z"/>
	<path id="Path_83186" class="st3" d="M-2322.9-257.8c-0.5-1.2-1-2.4-1.2-3.6c0-0.2-0.3-0.2-0.3,0.1c0.2,1.3,0.6,2.6,1.3,3.7
		c0,0.1,0.1,0.1,0.2,0.1C-2322.9-257.6-2322.8-257.7-2322.9-257.8z"/>
	<path id="Path_83187" class="st3" d="M-2322.8-254.3c0.3,0.3,0.6,0.6,0.9,0.8c0.1,0.1,0.3-0.1,0.2-0.2c-0.2-0.4-0.5-0.7-0.9-0.9
		c-0.3-0.3-0.6-0.6-1-0.9c-0.1-0.1-0.3,0.1-0.2,0.2C-2323.4-254.9-2323.1-254.6-2322.8-254.3z"/>
	<path id="Path_83188" class="st3" d="M-2321.2-254.9c0.2-0.5-0.1-0.8-0.4-1.1c-0.2-0.2-0.5,0.1-0.3,0.2c0.2,0.2,0.4,0.5,0.4,0.8
		c0,0.1,0.1,0.2,0.1,0.2C-2321.3-254.8-2321.2-254.9-2321.2-254.9z"/>
	<path id="Path_83189" class="st3" d="M-2316-251.5c-1.7-0.6-3.2-1.5-4.6-2.6c-0.2-0.1-0.4,0.1-0.2,0.3c1.3,1.3,2.9,2.2,4.7,2.7
		C-2315.9-251.1-2315.8-251.5-2316-251.5z"/>
	<path id="Path_83190" class="st3" d="M-2318.4-251.5c-0.2-0.1-0.4,0.1-0.2,0.3s0.5,0.3,0.7,0.4c0.1,0.1,0.3-0.1,0.2-0.2
		C-2317.8-251.3-2318.2-251.3-2318.4-251.5z"/>
	<path id="Path_83191" class="st3" d="M-2316.5-250.3c1.5,0.8,3.1,1.4,4.8,1.8c0.2,0,0.3-0.3,0.1-0.3c-1.6-0.5-3.2-1-4.7-1.7
		C-2316.6-250.6-2316.7-250.3-2316.5-250.3z"/>
	<path id="Path_83192" class="st3" d="M-2309.4-285.4c-0.1,0.2,0.1,0.4,0.3,0.2c0.4-0.3,0.8-0.4,1.2-0.4c0.5,0.1,1,0.4,1.2,0.8
		c0.1,0.2,0.4,0.1,0.3-0.1C-2306.6-286.2-2308.6-286.4-2309.4-285.4z"/>
	<path id="Path_83193" class="st3" d="M-2306.1-284.4c-0.1,0.1,0.1,0.3,0.2,0.2c0.3-0.2,0.6-0.4,1-0.3c0.3,0.1,0.6,0.1,0.9,0.2
		c0.1,0,0.2-0.1,0.2-0.2v-0.1C-2304.5-285.1-2305.5-285.1-2306.1-284.4L-2306.1-284.4z"/>
	<path id="Path_83194" class="st3" d="M-2293.4-275.5c0.2,0.5,0.2,1,0.1,1.6c0,0.1,0,0.1,0.1,0.1h0.1h0.1l0,0
		c0.7-1.2-0.3-2.6-1.3-3.1c-0.2-0.1-0.3,0.2-0.1,0.3C-2294-276.4-2293.6-276-2293.4-275.5z"/>
	<path id="Path_83195" class="st3" d="M-2293.2-273.8c-0.1,0.1-0.1,0.2,0,0.3c0,0,0,0,0.1,0.1c0.4,0.1,0.8,0.5,1,0.9
		c0.1,0.4,0.1,0.8,0.2,1.2c0,0.1,0.1,0.2,0.2,0.1c0.1,0,0.1-0.1,0.1-0.1c0.2-0.5,0.1-1.1-0.1-1.6c-0.2-0.5-0.6-0.8-1.1-0.9h-0.1
		C-2293.1-273.8-2293.2-273.8-2293.2-273.8z"/>
	<path id="Path_83196" class="st3" d="M-2291.6-267.8c0.3-0.3,0.4-0.7,0.4-1.1c-0.1-0.4-0.4-0.7-0.7-0.8c-0.1,0-0.2,0-0.2,0.1
		s0,0.2,0.1,0.2l0,0c0.3,0.1,0.5,0.4,0.4,0.7c0,0.3-0.2,0.5-0.3,0.8c0,0.1,0.1,0.2,0.2,0.2C-2291.7-267.8-2291.6-267.8-2291.6-267.8
		z"/>
	<path id="Path_83197" class="st3" d="M-2316.4-275.7c-0.1,0.1,0,0.2,0,0.2c0.1,0.1,0.2,0,0.2,0c0.2-0.4,0.6-0.7,0.9-0.9
		c0.4-0.1,0.9-0.1,1.3,0.1c0,0,0-0.1,0.1-0.1l0.1-0.1l0,0C-2314.8-277.3-2315.8-276.6-2316.4-275.7z"/>
	<path id="Path_83198" class="st3" d="M-2313.9-276.3c0,0.1,0.1,0.2,0.2,0.1h0.1c0.2-0.2,0.5-0.4,0.7-0.5c0.3-0.1,0.6,0,0.9,0.1
		c0.1,0,0.3-0.1,0.2-0.2c-0.6-0.6-1.4-0.2-1.9,0.3l-0.1,0.1C-2313.9-276.4-2313.9-276.3-2313.9-276.3z"/>
	<path id="Path_83199" class="st3" d="M-2322.1-260.9c-0.1,0-0.2,0-0.2,0.1s0,0.2,0.1,0.2c0.3,0.1,0.6,0.4,0.7,0.7
		c0.1,0.3,0.1,0.7,0,1.1c0,0.1,0.1,0.2,0.1,0.2c0.1,0,0.1,0,0.1-0.1c0.3-0.4,0.3-0.9,0.1-1.4
		C-2321.3-260.5-2321.7-260.8-2322.1-260.9z"/>
	<path id="Path_83200" class="st3" d="M-2321.3-258.6c-0.2,0-0.2,0.3,0,0.4c0.2,0,0.4,0.1,0.6,0.3c0.1,0.2,0.2,0.4,0.3,0.6
		c0,0.1,0.1,0.1,0.2,0.1c0,0,0.1,0,0.1-0.1c0.1-0.3,0-0.7-0.3-0.9C-2320.6-258.5-2320.9-258.6-2321.3-258.6z"/>
	<path id="Path_83201" class="st3" d="M-2315.9-270C-2315.9-270.1-2316-270.1-2315.9-270c-0.3-0.3-0.5-0.5-0.7-0.7
		c-0.2-0.3-0.3-0.6-0.4-0.9c0-0.1-0.1-0.1-0.2-0.1c-0.1,0-0.1,0.1-0.1,0.2c0.1,0.8,0.5,1.4,1.2,1.8v-0.1
		C-2316.1-270-2316-270.1-2315.9-270z"/>
	<path id="Path_83202" class="st3" d="M-2315.2-268.1c0.1,0,0.3-0.1,0.2-0.2c-0.2-0.2-0.5-0.3-0.7-0.6c-0.2-0.3-0.2-0.6-0.1-0.9
		c0-0.1,0-0.2-0.1-0.2l0,0c-0.1,0-0.2,0-0.2,0.1v0.1C-2316.4-269.1-2316-268.4-2315.2-268.1L-2315.2-268.1z"/>
	<path id="Path_83203" class="st3" d="M-2317.2-287.1c0.3-0.6,1.1-0.8,1.7-0.5l0,0c-0.1,0-0.1-0.1-0.1-0.2c0,0,0,0,0-0.1l0.1-0.1
		c-0.7-0.4-1.6-0.1-2,0.6C-2317.6-287.1-2317.3-286.9-2317.2-287.1z"/>
	<path id="Path_83204" class="st3" d="M-2315.4-287.6L-2315.4-287.6L-2315.4-287.6z"/>
	<path id="Path_83205" class="st3" d="M-2315.5-287.6L-2315.5-287.6C-2315.4-287.6-2315.4-287.6-2315.5-287.6
		c0.3-0.2,0.6-0.5,0.8-0.7c0.1-0.1-0.1-0.3-0.2-0.2c-0.2,0.2-0.4,0.4-0.6,0.6l-0.1,0.1C-2315.7-287.7-2315.6-287.6-2315.5-287.6z"/>
	<path id="Path_83206" class="st3" d="M-2308.5-290.7C-2308.5-290.8-2308.5-290.8-2308.5-290.7c-0.5-0.4-1.2-0.4-1.7-0.2
		c-0.1,0-0.1,0.1-0.1,0.2s0.1,0.1,0.2,0.1c0.5-0.2,0.9-0.1,1.4,0.1c0.1,0,0.2,0,0.2-0.1C-2308.5-290.6-2308.5-290.7-2308.5-290.7z"
		/>
	<path id="Path_83207" class="st3" d="M-2308.5-290.8c-0.1,0.1-0.1,0.1,0,0.2l0,0c0.1,0.1,0.2,0.1,0.2,0c0.4-0.3,1-0.4,1.5-0.3
		c0.1,0,0.3-0.2,0.1-0.3C-2307.3-291.4-2308-291.3-2308.5-290.8z"/>
	<path id="Path_83208" class="st3" d="M-2288.7-275c0.4-0.4,0.4-1.1,0-1.5l0,0c-0.1-0.1-0.3,0-0.2,0.2c0.4,0.5,0.2,0.9-0.1,1.3
		c0-0.1,0.1-0.1,0.2-0.1C-2288.8-275-2288.8-275-2288.7-275z"/>
	<path id="Path_83209" class="st3" d="M-2288.7-275c-0.1,0-0.1-0.1-0.2-0.1c-0.1,0-0.1,0-0.2,0.1c0,0.1,0,0.1,0,0.2l0,0
		c0.2,0.1,0.4,0.4,0.6,0.6c0.1,0.2,0.1,0.5,0.2,0.7c0,0.1,0.1,0.1,0.2,0.1c0,0,0.1,0,0.1-0.1c0.1-0.3,0-0.6-0.2-0.9
		C-2288.3-274.6-2288.5-274.8-2288.7-275z"/>
	<path id="Path_83210" class="st3" d="M-2268-250c-0.1-0.4-0.1-0.8-0.2-1.2c-0.2-0.9-0.5-1.8-0.9-2.6c0-0.1-0.1-0.1-0.2-0.1l0,0
		c-0.1,0-0.1,0.1-0.1,0.2l0,0c0.1,0.2,0.1,0.3,0.2,0.5c0.3,1,0.6,2,0.8,3c0,0.1,0,0.1,0.1,0.2C-2268.3-249.9-2268.2-249.9-2268-250
		C-2268-249.8-2268-249.9-2268-250z"/>
	<path id="Path_83211" class="st3" d="M-2290.2-251.1c0.1,0.1,0.1,0.2,0.1,0.3c0.1,0.3,0.4,0.4,0.7,0.2c0.1-0.1,0.2-0.2,0.2-0.3
		s0-0.1,0.1-0.1v-0.1c0.1-0.3,0-0.7-0.2-0.9c-0.1-0.1-0.2-0.1-0.3-0.1c-0.4,0-0.7,0.2-0.7,0.6
		C-2290.3-251.3-2290.2-251.2-2290.2-251.1z"/>
</g>
<g id="Group_117513" transform="translate(95.169 404.635) rotate(-18)" class="st4">
	<g id="Group_114659" transform="translate(-0.115 34.165)">
		<path id="Path_84784" class="st0" d="M-2139.9-1002.9l-0.4-0.4c-0.4,0.4-0.7,1-1.1,1.4c4.6,2.7,8.7,6.3,14,7.9
			c0.5,0.1,0.9-0.2,1-0.7c0.1-0.4-0.2-0.8-0.6-1c-5-1.5-9.1-5.2-13.6-7.8c-0.8-0.5-1.8,0.7-1.1,1.4l0.4,0.4
			C-2140.3-1000.9-2139.1-1002.2-2139.9-1002.9z"/>
	</g>
	<g id="Group_114660" transform="translate(4.078 27.159)">
		<path id="Path_84785" class="st0" d="M-2138.7-1002.7c-0.3,8-3,15.6-3.3,23.6c0,1.1,1.6,1.1,1.8,0c0.3-8,3-15.6,3.3-23.6
			c0-0.5-0.5-0.9-0.9-0.8C-2138.3-1003.5-2138.6-1003.2-2138.7-1002.7z"/>
	</g>
	<g id="Group_114661" transform="translate(18.781 22.021)">
		<path id="Path_84786" class="st0" d="M-2141.8-1002.3c2.2,3.7,3.6,7.8,5.9,11.5c0.2,0.4,0.7,0.6,1.2,0.3c0.4-0.2,0.6-0.7,0.3-1.2
			l0,0c-2.2-3.7-3.6-7.8-5.9-11.5c-0.2-0.4-0.7-0.6-1.2-0.3S-2142-1002.7-2141.8-1002.3L-2141.8-1002.3z"/>
	</g>
	<g id="Group_114662" transform="translate(16.56 25.983)">
		<path id="Path_84787" class="st0" d="M-2140.7-996.2c3-1.9,6.4-3.5,9.3-5.7c0.8-0.7,0-2.2-0.8-1.5c-3,2.3-6.3,3.7-9.3,5.7
			C-2142.5-997.1-2141.7-995.5-2140.7-996.2L-2140.7-996.2z"/>
	</g>
	<g id="Group_114663" transform="translate(26.671 15.314)">
		<path id="Path_84788" class="st0" d="M-2141.5-1001.8c3.3,2.3,5.7,6,10,5.6c1.1-0.1,1.1-1.8,0-1.8c-3.9,0.3-6.2-3.4-9.2-5.5
			C-2141.5-1004-2142.5-1002.5-2141.5-1001.8z"/>
	</g>
	<g id="Group_114664" transform="translate(34.522 10.755)">
		<path id="Path_84789" class="st0" d="M-2141.9-1002.4c1.6,7.8,5,17,1.4,24.8c-0.4,1,0.9,1.9,1.5,0.8c3.8-8.4,0.6-17.8-1.3-26.2
			C-2140.5-1004-2142.2-1003.5-2141.9-1002.4z"/>
	</g>
	<g id="Group_114665" transform="translate(38.664 -0.131)">
		<path id="Path_84790" class="st0" d="M-2140.3-1001.5v-1c-0.1,0.3-0.4,0.5-0.5,0.8c4.2-1.4,3.8,4.8,3.1,7.3
			c-0.1,0.5,0.1,0.9,0.6,1.1c0.1,0,0.1,0,0.2,0c2.2-0.3,3.7-2.1,4.9-3.7c0.7-1-0.8-1.8-1.5-0.8c-0.8,1.1-2,2.6-3.4,2.9
			c0.3,0.4,0.5,0.7,0.8,1.1c1.1-3.8,0.7-11.4-5.1-9.4c-0.4,0.1-0.7,0.4-0.7,0.8v1c0,0.5,0.4,0.8,0.8,0.8
			C-2140.7-1000.6-2140.3-1001-2140.3-1001.5L-2140.3-1001.5L-2140.3-1001.5z"/>
	</g>
</g>
<g id="Group_117515" transform="translate(1212.481 395.967) rotate(-150)" class="st4">
	<g id="Group_115528" transform="translate(10.706 46.374)">
		<path id="Path_85596" class="st0" d="M238.8,268.2c0.1,0,0.1,0,0.1-0.1c-0.4,0.1-0.7-0.1-0.8-0.5v-0.1c0-2.5,3.6-3.2,5.5-3.4
			c2.3-0.2,5.6,0.2,6.7,2.7c1.7,4-9.8,1.9-11.2,1.5c-0.3-0.1-0.5-0.4-0.4-0.8c0.1-0.3,0.4-0.5,0.7-0.4c1.7,0.4,3.4,0.7,5.1,0.8
			c1.4,0.1,3.3,0.4,4.7-0.4c0.4-0.2-1-1.4-1.2-1.5c-1-0.5-2.2-0.7-3.3-0.6c-1.1,0-2.1,0.2-3.1,0.5c-0.5,0.2-1,0.4-1.4,0.8
			c-0.1,0.1-0.5,1.3-0.5,0.8c-0.3-0.2-0.5-0.4-0.8-0.6c0.3-0.1,0.7,0,0.9,0.2C240.1,267.5,239.5,268.6,238.8,268.2L238.8,268.2z"/>
	</g>
	<g id="Group_115529" transform="translate(0.03 5.963)">
		<path id="Path_85597" class="st0" d="M249.1,306.8c2.5-8.5,2.7-15.8-0.9-23.9c-2.8-6.4-7.9-11.4-10.1-18.1c-0.3-0.8,1-1.1,1.2-0.3
			c1.4,4.3,4,7.6,6.4,11.2c2.2,3.3,3.9,6.8,5.1,10.5c2.6,7,1.5,14.1-0.5,21.1C250.1,307.9,248.9,307.6,249.1,306.8L249.1,306.8z"/>
	</g>
	<g id="Group_115530" transform="translate(21.458 10.626)">
		<path id="Path_85598" class="st0" d="M238.3,303c-1.2-16.2,6.3-28.1,17.6-38.7c0.3-0.2,0.7-0.2,0.9,0s0.2,0.6,0,0.9
			c-11,10.3-18.4,21.9-17.2,37.8C239.7,303.8,238.4,303.8,238.3,303L238.3,303z"/>
	</g>
	<g id="Group_115531" transform="translate(0.16 0.001)">
		<path id="Path_85599" class="st0" d="M238.2,270.2c3.5-7.9,16.9-6.2,23.6-5.5c5.5,0.6,18.2,2.5,16.7,10.8
			c-0.1,0.3-0.4,0.5-0.8,0.5c-0.3-0.1-0.5-0.4-0.5-0.8l0,0c1.7-8.8-16.2-9.3-20.7-9.7c-5.5-0.3-14.5-0.6-17.2,5.3
			C238.9,271.6,237.8,270.9,238.2,270.2z"/>
	</g>
	<g id="Group_115532" transform="translate(4.951 14.724)">
		<path id="Path_85600" class="st0" d="M239.2,264.3c2.4,3.9,9.3,4.3,13.4,4.5c4.5,0.3,10.3,0.2,14.1-2.7c0.6-0.5,1.5,0.4,0.9,0.9
			c-4.3,3.3-10.9,3.3-16.1,3c-4.4-0.2-10.7-1.1-13.3-5.2C237.7,264.3,238.8,263.6,239.2,264.3z"/>
	</g>
	<g id="Group_115533" transform="translate(8.405 11.271)">
		<path id="Path_85601" class="st0" d="M238.6,264c0.3,0,0.6,0,0.9,0.1c0.7,0.3,0.4,1.5-0.3,1.2c-0.2-0.1-0.4-0.1-0.6-0.1
			c-0.3,0-0.6-0.3-0.6-0.6C238,264.3,238.3,264,238.6,264z"/>
	</g>
	<g id="Group_115534" transform="translate(13.023 12.924)">
		<path id="Path_85602" class="st0" d="M238.1,265.1c0.3-0.7,1.1-1.2,1.9-1.1c0.8,0,0.8,1.2,0,1.3c-0.1,0-0.6,0-0.7,0.2
			C239,266.2,237.8,265.9,238.1,265.1z"/>
	</g>
	<g id="Group_115535" transform="translate(13.377 8.342)">
		<path id="Path_85603" class="st0" d="M238.7,264h0.8c0.8,0,0.8,1.3,0,1.3h-0.8C237.8,265.2,237.8,264,238.7,264z"/>
	</g>
	<g id="Group_115536" transform="translate(7.466 5.312)">
		<path id="Path_85604" class="st0" d="M238.2,264.5c0.2-0.1,0.4-0.2,0.5-0.4c0.6-0.5,1.5,0.4,0.9,0.9c-0.2,0.1-0.4,0.2-0.5,0.4
			C238.5,266,237.6,265,238.2,264.5z"/>
	</g>
	<g id="Group_115537" transform="translate(20.945 5.936)">
		<path id="Path_85605" class="st0" d="M238.3,264.2c0.3-0.2,0.7-0.2,1-0.2c0.8,0,0.8,1.3,0,1.3H239
			C238.3,265.7,237.6,264.6,238.3,264.2z"/>
	</g>
	<g id="Group_115538" transform="translate(28.047 10.656)">
		<path id="Path_85606" class="st0" d="M238.6,264h0.3c0.8,0,0.8,1.3,0,1.3h-0.3C237.8,265.3,237.8,264,238.6,264z"/>
	</g>
	<g id="Group_115539" transform="translate(21.767 15.034)">
		<path id="Path_85607" class="st0" d="M238.1,264.9c0-0.1,0.1-0.3,0.1-0.4c0.1-0.3,0.4-0.6,0.8-0.5c0.3,0.1,0.6,0.4,0.5,0.7l0,0
			c0,0.1-0.1,0.2-0.1,0.4c-0.1,0.3-0.4,0.6-0.7,0.5C238.2,265.6,238,265.2,238.1,264.9L238.1,264.9z"/>
	</g>
	<g id="Group_115540" transform="translate(23.298 10.016)">
		<path id="Path_85608" class="st0" d="M238.1,264.7c0.2-0.4,0.6-0.7,1.1-0.7c0.8-0.1,0.8,1.2,0,1.3c0.1-0.1,0.1-0.1,0,0.1
			C238.8,266.1,237.7,265.4,238.1,264.7z"/>
	</g>
	<g id="Group_115541" transform="translate(32.389 5.789)">
		<path id="Path_85609" class="st0" d="M238.6,264c0.4,0,0.8,0.2,0.9,0.6c0.1,0.3-0.1,0.7-0.4,0.8c-0.4,0.1-0.6-0.1-0.8-0.4v-0.1
			l0.4,0.4l0,0C237.8,265.3,237.8,264,238.6,264z"/>
	</g>
	<g id="Group_115542" transform="translate(32.015 14.549)">
		<path id="Path_85610" class="st0" d="M238.6,264.1c-0.1,0-0.1,0-0.2,0.1c0.3-0.2,0.7-0.2,0.9,0s0.2,0.6,0,0.9
			c-0.2,0.2-0.4,0.3-0.7,0.3C237.8,265.4,237.8,264.1,238.6,264.1z"/>
	</g>
</g>
<g id="Group_117516" transform="translate(1339.901 451.488) rotate(-49)" class="st1">
	<g id="Group_115365" transform="translate(-0.007 1.209)">
		<path id="Path_85446" class="st0" d="M-1299.5-1962.9c-0.6,8.2-2.3,16.1-6.5,23.4c-3.1,5.5-7.5,12.9-13.1,16.1
			c-0.7,0.4-0.1,1.5,0.6,1.1c5.9-3.4,10.2-10.8,13.6-16.6c4.3-7.3,6-15.8,6.7-24.2C-1298.2-1963.7-1299.5-1963.7-1299.5-1962.9z"/>
	</g>
	<g id="Group_115366" transform="translate(19.922 -0.114)">
		<path id="Path_85447" class="st0" d="M-1318.4-1961.2c6.4-1.4,13.4-1.7,19.3,1.7c3.9,2.2,5,6.8,8,9.6c0.3,0.3,0.7,0.2,0.9,0
			c0.2-0.3,0.2-0.7,0-0.9c-4.1-3.8-5.4-8.7-10.9-11.1s-11.9-1.7-17.5-0.4C-1319.5-1962.3-1319.2-1961.1-1318.4-1961.2z"/>
	</g>
	<g id="Group_115367" transform="translate(48.275 10.755)">
		<path id="Path_85448" class="st0" d="M-1318.1-1960.3c3.9-3.4,13.1-1.7,16.9,0.2c5.3,2.5,11.5,7.2,14,12.6
			c0.4,0.7,1.4,0.1,1.1-0.6c-2.8-6-10-11.5-16-13.9c-4.4-1.7-13-2.7-16.9,0.8C-1319.6-1960.6-1318.7-1959.7-1318.1-1960.3
			L-1318.1-1960.3z"/>
	</g>
	<g id="Group_115368" transform="translate(60.409 26.38)">
		<path id="Path_85449" class="st0" d="M-1298.6-1963.5c-4.6,1.6-6.7,8.9-8.4,12.8c-2.1,4.4-4.2,8.8-6.3,13.2c-2,4.1-3.4,8.5-6,12.1
			c-0.4,0.5,0.4,1.2,0.9,0.9c0.5-0.3,0.5-0.5,0.6-1.1c0.1-0.8-1.2-0.8-1.3,0h0.1l0.9,0.9c3.9-5.6,6.1-12.5,9.2-18.6
			c1.7-3.3,3.1-6.6,4.7-10c1.3-2.8,2.9-7.8,6.2-8.9C-1297.5-1962.5-1297.9-1963.8-1298.6-1963.5L-1298.6-1963.5z"/>
	</g>
	<g id="Group_115369" transform="translate(28.868 12.954)">
		<path id="Path_85450" class="st0" d="M-1299.7-1963.2c-5,6.5-7.9,13.9-11.2,21.3c-2.6,5.9-6.8,11.9-8.5,18.2
			c-0.1,0.3,0.1,0.7,0.5,0.8c0.3,0.1,0.7-0.1,0.8-0.5l0,0c1.7-6.1,5.8-12,8.4-17.9c3.3-7.4,6.2-14.8,11.1-21.3
			C-1298-1963.3-1299.2-1963.9-1299.7-1963.2L-1299.7-1963.2z"/>
	</g>
	<g id="Group_115370" transform="translate(-0.155 39.79)">
		<path id="Path_85451" class="st0" d="M-1289.7-1950.4c-4.1-3.1-7.5-6.9-11.7-10c-5.1-3.8-11.5-3.8-17.3-1.6
			c-0.8,0.3-0.4,1.5,0.3,1.2c7.5-2.8,13.1-1.2,18.8,3.5c3,2.4,5.8,5.4,8.9,7.8C-1290.1-1948.9-1289.1-1949.9-1289.7-1950.4z"/>
	</g>
	<g id="Group_115371" transform="translate(28.111 50.615)">
		<path id="Path_85452" class="st0" d="M-1318.7-1960.2c1.6,0.3,3-0.8,4.5-1.3c4.8-1.3,10-0.9,14.6,1.2c3.3,1.5,5.8,4.2,8.1,6.8
			c1.4,1.5,2.7,3.6,4.6,4.8c0.7,0.4,1.4-0.7,0.6-1.1c-2.2-1.2-4.7-5-6.5-6.8c-2.2-2.3-4.8-4.1-7.7-5.4c-2.7-1.1-5.6-1.6-8.6-1.5
			c-1.9,0-3.8,0.2-5.7,0.7c-0.6,0.1-3.2,1.4-3.8,1.3C-1319.1-1961.5-1319.5-1960.3-1318.7-1960.2z"/>
	</g>
	<g id="Group_115372" transform="translate(60.318 26.414)">
		<path id="Path_85453" class="st0" d="M-1298.9-1963.2c-6.4,12.9-10.3,27.2-20.3,38c-0.3,0.2-0.3,0.7,0,0.9s0.7,0.3,0.9,0l0,0
			c10-10.8,14-25.2,20.5-38.3C-1297.5-1963.3-1298.6-1963.9-1298.9-1963.2L-1298.9-1963.2z"/>
	</g>
	<g id="Group_115373" transform="translate(24.451 6.41)">
		<path id="Path_85454" class="st0" d="M-1318.4-1962c4.1-0.7,11,1.2,12.8,5.3c0.3,0.7,1.4,0.1,1.1-0.6c-2.1-4.7-9.5-6.8-14.3-5.9
			C-1319.5-1963.1-1319.2-1961.8-1318.4-1962z"/>
	</g>
	<g id="Group_115374" transform="translate(21.671 11.076)">
		<path id="Path_85455" class="st0" d="M-1318.4-1961.8c2.1-0.9,5.6,0,7.5,0.7c2.8,0.9,4.7,3.4,6.6,5.7c0.5,0.6,1.4-0.3,0.9-0.9
			c-2.1-2.5-4.1-4.8-7.2-6c-2.1-0.8-6-1.6-8.3-0.7C-1319.5-1962.7-1319.2-1961.5-1318.4-1961.8z"/>
	</g>
	<g id="Group_115375" transform="translate(19.543 15.28)">
		<path id="Path_85456" class="st0" d="M-1318.2-1961.8c5-2.3,10.6,2.6,13.8,5.7c0.3,0.3,0.7,0.2,0.9,0c0.2-0.3,0.2-0.7,0-0.9
			c-0.8-0.7-1.4-2.1-2.5-2.5c-0.9-0.3-1.2-0.9-2-1.4c-1-0.6-2-1.1-3.1-1.5c-2.2-1-5.5-1.4-7.7-0.4
			C-1319.6-1962.5-1318.9-1961.4-1318.2-1961.8z"/>
	</g>
	<g id="Group_115376" transform="translate(18.567 19.845)">
		<path id="Path_85457" class="st0" d="M-1318.6-1962.1c5.4,0.3,10.5,2.7,14,6.7c0.5,0.6,1.4-0.3,0.9-0.9c-3.8-4.3-9.1-6.9-14.8-7.1
			c-0.4,0-0.7,0.3-0.7,0.7C-1319.1-1962.4-1318.9-1962.2-1318.6-1962.1z"/>
	</g>
	<g id="Group_115377" transform="translate(14.839 26.873)">
		<path id="Path_85458" class="st0" d="M-1317.9-1962.4c0,0.3,5.4,1.1,6.1,1.2c2.5,0.6,6.7,2.4,7.6,5.2c0.2,0.8,1.5,0.4,1.2-0.3
			c-1.6-5.3-10.9-7.8-15.8-7c-0.2,0-0.4,0.3-0.4,0.4v0.1C-1319.3-1961.9-1318.1-1961.6-1317.9-1962.4L-1317.9-1962.4z"/>
	</g>
	<g id="Group_115378" transform="translate(13.622 32.002)">
		<path id="Path_85459" class="st0" d="M-1318.4-1961.9c3.4-0.6,6.9,0,9.9,1.8c1.8,1,3.1,3.5,4.5,5.1c0.5,0.6,1.4-0.3,0.9-0.9
			c-1.9-2.1-3.1-4.4-5.7-5.8c-3-1.6-6.5-2.1-9.9-1.4C-1319.5-1963-1319.2-1961.7-1318.4-1961.9L-1318.4-1961.9z"/>
	</g>
	<g id="Group_115379" transform="translate(50.781 15.725)">
		<path id="Path_85460" class="st0" d="M-1318.2-1961.5c3.4-2.1,9.3,1.4,12.4,2.9c3.7,1.6,6.4,4.1,9.1,6.9c0.3,0.3,0.7,0.2,0.9,0
			c0.2-0.3,0.2-0.7,0-0.9c-3.2-3.2-6.5-6.2-11-7.8c-3.6-1.3-8.3-4.4-12.1-2.2C-1319.6-1962.2-1319-1961.1-1318.2-1961.5z"/>
	</g>
	<g id="Group_115380" transform="translate(50.891 20.984)">
		<path id="Path_85461" class="st0" d="M-1318.5-1962.1c6,0,13.4,2.5,17.3,7.2c0.5,0.6,1.4-0.3,0.9-0.9c-4.2-5.2-11.7-7.7-18.2-7.6
			C-1319.4-1963.3-1319.4-1962.1-1318.5-1962.1z"/>
	</g>
	<g id="Group_115381" transform="translate(48.457 25.634)">
		<path id="Path_85462" class="st0" d="M-1318.3-1962c3.1-0.8,5.8,0.9,8.6,1.9c3.3,1.1,4.8,2.8,7.3,4.9c0.6,0.5,1.5-0.4,0.9-0.9
			c-2.7-2.3-4.4-4.1-7.9-5.2c-3.2-1-5.8-2.8-9.3-1.9c-0.3,0.1-0.5,0.5-0.4,0.8C-1319.1-1962.1-1318.7-1961.9-1318.3-1962
			C-1318.4-1962-1318.3-1962-1318.3-1962L-1318.3-1962z"/>
	</g>
	<g id="Group_115382" transform="translate(46.348 30.959)">
		<path id="Path_85463" class="st0" d="M-1318.5-1961.9c1.5,0,3-0.3,4.6-0.4c1.9,0.1,3.7,0.6,5.4,1.4c4.1,1.6,5.8,4.3,7.6,8.1
			c0.4,0.7,1.5,0.1,1.1-0.6c-1.8-3.8-3.4-6.4-7.3-8.2c-1.7-0.8-3.6-1.4-5.5-1.7c-2-0.4-3.9,0.3-5.9,0.2c-0.3,0-0.6,0.2-0.7,0.5
			c0,0.3,0.2,0.6,0.5,0.7C-1318.6-1961.9-1318.5-1961.9-1318.5-1961.9z"/>
	</g>
	<g id="Group_115383" transform="translate(44.067 37.709)">
		<path id="Path_85464" class="st0" d="M-1318.5-1962.2c2.3,0,5.5,0.9,7.8,1.3c2.2,0.4,6.9,3.1,8.3,5c0.5,0.7,1.6,0,1.1-0.6
			c-1.5-2.1-4.7-3.7-7-4.8c-1.4-0.6-2.9-1-4.4-1c-2-0.2-4-1.1-5.9-1.1c-0.3,0-0.6,0.2-0.7,0.5c0,0.3,0.2,0.6,0.5,0.7
			C-1318.6-1962.2-1318.5-1962.2-1318.5-1962.2z"/>
	</g>
	<g id="Group_115384" transform="translate(41.981 41.539)">
		<path id="Path_85465" class="st0" d="M-1318.6-1962c4-0.2,8,0.6,11.5,2.5c2.4,1,3.9,3.9,6.2,5.3c0.3,0.2,0.7,0,0.9-0.3
			c0.1-0.3,0-0.6-0.2-0.8c-2.5-1.5-4.4-5.2-7.3-5.9c-1.7-0.5-3.4-1.1-5.1-1.8c-1.9-0.5-3.9-0.6-5.9-0.3
			C-1319.4-1963.2-1319.4-1961.8-1318.6-1962z"/>
	</g>
	<g id="Group_115385" transform="translate(39.027 45.575)">
		<path id="Path_85466" class="st0" d="M-1318.5-1962.2c3.7,0,7.4,0.9,10.7,2.7c1.7,0.8,3.2,1.8,4.7,2.9c0.7,0.5,0.8,1.1,1.7,1.5
			c0.7,0.3,1.4-0.8,0.6-1.1c-1.1-0.5-2.2-1.9-3.2-2.6c-1.6-1.1-3.4-2-5.3-2.7c-2.9-1.2-6-1.9-9.2-1.9c-0.3,0-0.6,0.2-0.7,0.5
			c0,0.3,0.2,0.6,0.5,0.7C-1318.6-1962.2-1318.5-1962.2-1318.5-1962.2z"/>
	</g>
	<g id="Group_115386" transform="translate(28.121 52.064)">
		<path id="Path_85467" class="st0" d="M-1318.3-1961.6c11.5-2.7,22.8,4.3,31.2,11.6c0.6,0.5,1.5-0.4,0.9-0.9
			c-8.9-7.7-20.3-14.7-32.6-11.9C-1319.5-1962.6-1319.1-1961.4-1318.3-1961.6L-1318.3-1961.6z"/>
	</g>
</g>
<g id="Group_117517" transform="translate(975.365 1015.799)">
	<path id="Path_83104" class="st3" d="M398.8-492.7c-9.9-3.9-20.6-5.9-30.8-9c-0.4-0.1-0.7,0.5-0.2,0.6c10,3.6,20.6,6.2,30.9,8.8
		c0.1,0.1,0.3,0,0.4-0.2C399-492.5,398.9-492.7,398.8-492.7z M377.4-503.6c0.1,0,0.3-0.1,0.3-0.2s-0.1-0.2-0.2-0.3
		c-1.3-0.4-2.5-0.7-3.8-1c-0.4-0.1-0.6,0.5-0.2,0.6C374.8-504.2,376.1-503.9,377.4-503.6L377.4-503.6z M390-500.1
		c0.3,0.1,0.4-0.4,0.1-0.5c-2.9-1-5.8-1.9-8.7-2.6c-0.3-0.1-0.5,0.4-0.2,0.5C384.1-501.9,387-500.6,390-500.1L390-500.1z
		 M408.6-499.3c-11.4-4.3-23.3-7.1-35-10.4c-0.3-0.1-0.5,0.4-0.2,0.5c11.7,3.4,23.4,6.6,35,10.3c0.1,0,0.3,0,0.3-0.2
		C408.7-499.1,408.7-499.2,408.6-499.3L408.6-499.3z M373-514.1c2.8,1,5.6,1.7,8.5,2.1c0.3,0.1,0.4-0.4,0.1-0.5
		c-2.8-0.8-5.7-1.1-8.4-2.1c-0.1,0-0.3,0-0.3,0.2C372.8-514.3,372.9-514.2,373-514.1z"/>
	<path id="Path_83105" class="st3" d="M354.7-523.8h-0.1c-0.3-1.3-0.9-2.6-1.6-3.8c1-0.7,2-1.5,3-2.1c0.1-0.1,0.2-0.2,0.2-0.4
		c0.1,0.1,0.2,0.2,0.3,0.3c0.3,0.2,0.6,0.3,0.9,0.3c0.5,0.5,0.8,0.4,1.3,0.1h0.1c0.2-0.1,0.3-0.2,0.5-0.3s0.3-0.3,0.3-0.4
		c0,0,0.1,0,0.1-0.1c-0.1-0.1-0.1-0.2-0.2-0.2c-0.2-0.5-0.2-1,0-1.5c0.1-0.3,0.3-0.6,0.5-0.8c0,0,0-0.1-0.1-0.1
		c-0.7-0.9-2.3-1.4-3.1-0.4c-0.2,0-0.3,0.1-0.4,0.2c-0.3,0.5-1.4,1.8-0.8,2.4l0.1,0.1h-0.1c-1.1,0.7-2.2,1.4-3.2,2.2
		c-1.5-2-3.8-3.1-6.3-3.2c-0.7,0-1.5,0-2.2,0.1c-0.4-1.9-0.6-3.9-0.6-5.9c0-0.1,0-0.1,0-0.2c0.2,0,0.4,0,0.6,0
		c0.2,0,0.4-0.2,0.4-0.5c0.1-0.1,0.2-0.1,0.3-0.2c0.3-0.3,0.5-0.8,0.4-1.2c-0.3-0.8-1-1.2-1.9-1.1c-0.4,0-0.9,0.3-1.1,0.6
		c0,0,0,0,0,0.1c-0.1,0.1-0.1,0.2-0.1,0.3c0,0.2,0,0.3,0,0.5c0,0,0,0,0,0.1c-0.1,0.3,0,0.5,0,0.8c0.1,0.3,0.3,0.5,0.6,0.6
		c0,0.1-0.1,0.1-0.1,0.2c-0.1,2.1,0.1,4.2,0.6,6.2c-2.1,0.6-4,1.8-5.5,3.5c-1.4-0.5-3.4-0.1-4.8,0c-3.3,0.2-6.5,0.8-9.6,1.7
		c-2.1,0.6-6.9,2.4-4.2,4.9c9.1,15.1,32.1,23.7,48.1,14.2c0.1,0,0.1-0.1,0.1-0.1c0.2,0.1,0.4,0,0.5-0.1
		C375.1-513.5,359.3-521.8,354.7-523.8z M357.8-532.8c-0.1,0.1-0.2,0.1-0.2,0.2l-0.1-0.1C357.6-532.7,357.7-532.8,357.8-532.8
		L357.8-532.8z M356.1-530.5C356.1-530.5,356.1-530.4,356.1-530.5C356.1-530.4,356-530.4,356.1-530.5
		C356-530.5,356-530.5,356.1-530.5z M343.9-539.4l0.1,0.1v0.1c0,0.1,0,0,0,0.1l0,0C344-539.2,343.9-539.3,343.9-539.4L343.9-539.4
		L343.9-539.4z M342.7-538.7c0-0.1,0-0.3,0-0.4l0,0c0.1,0,0.1,0.1,0.2,0.1c0,0.1,0.1,0.1,0.1,0.2c0,0,0,0.1,0.1,0.1
		C343-538.9,342.8-538.9,342.7-538.7L342.7-538.7z M343.7-530.2c0.1,0,0.2,0,0.2-0.1c0.6-0.1,1.3-0.2,1.9-0.1c2.3,0,4.4,1,5.8,2.8
		c-1.2,1-2.4,2-3.5,3.2c-0.1,0.1-0.1,0.3,0,0.4c0.1,0.1,0.3,0.1,0.4,0c1.2-1,2.4-2,3.6-2.9c1.4,2.6,2.1,5.5,1.9,8.5
		c-0.1,0-0.2,0.1-0.3,0.1c-5.6,5.1-13.9,2-17.9-3.6C336.9-525.9,339.6-529.4,343.7-530.2L343.7-530.2z M367-508.1
		c-0.1,0.1-0.2,0.2-0.2,0.3h-0.1c-9.1,3.1-17.5,4.5-26.8,1.4c-8.6-2.8-15.2-8.5-20.6-15.6c0-0.1-0.1-0.1-0.2-0.1
		c-0.9-2.4,7.8-3.9,9.2-4.1c2.8-0.4,5.7-0.2,8.5-0.5c-0.8,1.2-1.4,2.6-1.6,4.1c-0.2,0-0.4,0.1-0.5,0.3c0,0.1,0,0.1,0,0.2
		c3,7.4,13.9,9.8,19.6,4.6c0.1,0,0.1-0.1,0.1-0.2c0.3,0,0.5-0.2,0.5-0.5l0,0c0.1-1.6,0-3.2-0.3-4.7C358.7-520,373.4-513.5,367-508.1
		L367-508.1z M341.1-510.4c-7.7-2.7-14.8-6.8-21-12.1c-0.2-0.2-0.5,0.2-0.3,0.4c5.9,5.3,13.2,10.7,21.2,12.3
		C341.3-509.8,341.4-510.3,341.1-510.4z M367.2-509.1c-7.1,0.7-13.9,1.4-21-0.4c-0.3-0.1-0.6,0.4-0.2,0.5c6.9,2.1,14.3,2.2,21.3,0.4
		c0.1,0,0.2-0.2,0.2-0.3C367.4-509.1,367.3-509.1,367.2-509.1L367.2-509.1z M337.5-521.8c0.6,1.6,2.3,2.5,4,2.1
		c2.4-0.4,3-3.5,1.5-5.2c-0.4-0.5-1-0.8-1.6-1c-0.8-0.3-1.7-0.1-2.4,0.3c-0.1,0.1-0.1,0.3,0,0.4
		C337.6-524.6,336.9-523.1,337.5-521.8L337.5-521.8z M339.7-524.7c0.1,0,0.2-0.1,0.2-0.2l0,0c0.4-0.1,0.9-0.1,1.3,0
		c0.5,0.1,0.9,0.4,1.2,0.8c0.6,0.8,0.7,1.8,0.3,2.7c-0.9,1.1-2.5,1.4-3.6,0.5c-0.5-0.4-0.8-0.9-1-1.5c-0.2-1,0.4-1.9,1.4-2.1
		C339.5-524.7,339.6-524.7,339.7-524.7L339.7-524.7z"/>
</g>
<g id="_x36_3">
	<path class="st0" d="M102.9,114c0.1-0.8-0.4-1.4-1-1.5c-0.6-0.1-5.9-2.6-7.2-3c1.8-2.4,3.6-4.7,5.4-6.8c0.7-0.8,0.2-2-0.9-2.2
		c0,0-7.8-1.1-10.1-1.4c1.8-2.1,3.5-4.2,5.3-6.3c0.8-1-0.1-2.5-1.4-2.2c-31.5,8.9-30.7,8-31.2,9.2c-8.3-9-15.8-17.9-23.9-26.6
		c-0.5-0.5-1.2-0.6-1.7-0.2c-12.6,8.7-25.7,17.8-36.6,29.1c-0.4,0.4-0.5,1.1-0.2,1.6c0.3,0.5,0.6,0.9,0.9,1.3l-6.3,6.7
		c-0.6,0.6-0.4,1.6,0.3,2c1.5,1,3.1,2,4.7,2.9c-3.1,2.8-5.6,6.2-7.4,10c-0.3,0.6-0.1,1.3,0.6,1.7c-0.9,1.2-2.4,3.3-3,4
		c-0.5,0.6-0.4,1.7,0.6,2.1l0,0.1c0.2,1.7,1.5,3,3.1,3.2c10.5,1.4,21.5,2.9,32,3.8c-1,4.4,8.6,8.1,11.1,3.3
		c13.3,3.8,26.1,8.1,39.3,12c1.3,0.4,2.8-0.1,3.6-1.3c7.4-10.7,15.3-21.4,22.6-32.1c1.2-1.7,2.1-3.6,2.6-5.7
		C104.3,116.3,104.3,115.2,102.9,114z M99.7,114.5c-6.9,12.4-14.9,24.4-23.5,35.7c-1.1,1.4-1.3,1.4-2.8,1
		c-12.9-3.5-25.4-7.3-38.2-10.8c-0.4-0.1-0.8,0-1.1,0.2c-1.2,0.7-2.8,0.8-4,0.2c-2.8-1.4-0.7-4-2.9-4.2c-11.4-1.2-23-2.6-34.5-4.2
		c0-0.1,2.4-3.2,2.4-3.2c5.2,1,10.4,1.9,15.4,2.8c19.4,3.3,16.6,3.1,17.9,3.2c0.8,0.7,1.6,1.4,2.4,2.1c0,0.7,0.6,1.3,1.3,1.3
		c0.1,0,0.2,0,0.3,0c0.6,0.3,0.9,0.1,1,0.1c12.3,0.6,25.3,2.1,37,1.9c0.7,0,1.2-0.5,1.3-1.2C78.4,131,86,120.7,93,111.6
		C93.2,111.7,99.5,114.4,99.7,114.5z M96.5,102.8c-0.3,0.4-27,34.9-27.1,35.1c-9.3,0.1-19.7-0.9-29.2-1.5c8-2.5,16.2-4.4,24.5-5.5
		c0.4-0.1,0.7-0.3,0.9-0.6c6.4-10.1,13.9-19.6,21.5-28.7C89.3,101.7,94.2,102.5,96.5,102.8z M89.5,94.4
		c-9.1,10.7-18.2,21.9-25.9,33.9c-9.7,1.4-19.3,3.8-28.5,6.9c6.2-7.2,27.4-33.2,27.5-33.7C63.4,101.9,62,101.9,89.5,94.4z
		 M36.7,75.8c7.7,8.3,15.1,17,22.8,25.4c-9.2,11.2-18,22.4-27.6,33.5C22,126,10.1,115.3,2.2,103.2C12.5,92.7,24.8,84.1,36.7,75.8z
		 M1.8,107.3c4.3,6,9.4,11.6,14.7,16.8c-7.7-4.6-13.4-7.9-19.4-11.7L1.8,107.3z M1,118.5c0.1-0.1,0.2-0.2,0.2-0.3
		c7.2,4.4,14.7,8.7,21.9,13.2c-11.6-2.2-19.1-3.2-28.3-5.1C-3.7,123.4-1.5,120.7,1,118.5z"/>
	<path class="st0" d="M29.7,88.2c3.1,1.1,5.7,3.8,6.7,7c0.5,1.6,0.7,3.7,2,5.4c1.2,1.4,2.9,2.1,4.2,2.9c0.9,0.5,1.8,1.5,1.7,2.4
		c-0.3,1.7,2.4,2.2,2.6,0.4c0.3-1.9-0.8-3.8-2.9-5.1c-3.2-2-3.7-1.4-4.7-5.3c-0.1-0.5-0.2-1-0.4-1.4c-1.2-4-4.4-7.4-8.3-8.8
		c-0.7-0.3-1.5,0.1-1.7,0.8C28.6,87.1,29,87.9,29.7,88.2z"/>
	<path class="st0" d="M25.2,107.8c1.2,3,0.8,4.3,5.8,6.5c1.6,0.7,2.7-1.8,1.1-2.5c-3-1.3-3.3-1.9-3.9-3.8c-1.8-5.4-5.9-7.3-11.2-9.2
		c-1.7-0.6-2.6,1.9-0.9,2.5c1.9,0.7,3.8,1.4,5.5,2.5C22.8,104.6,24.5,105.9,25.2,107.8z"/>
	<path class="st0" d="M62.3,107c-0.3,0.7,0.1,1.5,0.8,1.7c3.5,1.4,6.5,2,9.2-0.3c0.2-0.2,0.5-0.4,0.7-0.5c0.9-0.3,2.6,0.7,4.4-0.3
		c1.6-0.9,0.2-3.2-1.3-2.3c-0.3,0.1-0.8,0.1-1.3,0c-5.7-0.9-2.6,4-10.6,0.9C63.3,106,62.6,106.3,62.3,107z"/>
	<path class="st0" d="M60.7,117.5c-2.2,0.6-1.9,1.6-6.4,0.8c-1.8-0.3-2.2,2.3-0.5,2.6c1.8,0.3,3.6,0.6,5.4,0c1-0.3,2.7-1.4,3.2-0.9
		c0.5,0.5,1.4,0.6,1.9,0C65.6,118.9,63.6,116.6,60.7,117.5z"/>
</g>
<g id="Group_117512_00000111913541063915628270000010284848020388673675_" transform="translate(141.987 265.185)">
	<path id="Path_83113_00000164481641518836389510000007581561475913343412_" class="st3" d="M-92.5,174.6c-0.1,0-0.2,0-0.4,0
		c5.3,1.2,10.5,2.2,15.7,4l0.3-0.3c-4.8-2.4-10.7-3.5-16-4.2c0.2,0,0.3,0.1,0.4,0.1c0.1,0,0.1,0.1,0.1,0.2
		C-92.3,174.6-92.4,174.6-92.5,174.6z"/>
	<path id="Path_83114_00000054982572334212148750000000400586163837400501_" class="st3" d="M-84.4,194.9c0,0.1,0.1,0.2,0.1,0.2
		c3.2,2.2,6.4,4.3,9.8,6.3c4.1,2.4,8.2,4.6,12.3,6.8c4,2.1,8.2,3.4,12.5,5c0.2,0.1,0.3-0.2,0.1-0.3c-4.3-2.1-8.9-3.3-13.1-5.6
		c-3.9-2.1-7.8-4.2-11.5-6.4c-7.4-4.3-14.3-9.3-20.6-15c-0.1,0.1-0.2,0.1-0.3,0.1l0,0c-0.2-0.1-0.4-0.2-0.5-0.3
		c3.4,3.3,7.1,6.3,11,9.1C-84.6,194.7-84.5,194.8-84.4,194.9L-84.4,194.9z"/>
	<path id="Path_83115_00000036221489816962350680000011953701138943825830_" class="st3" d="M-46.8,214.4c6.3,2.4,27.9,8.6,25.4-0.3
		c0-0.1-0.1-0.2-0.2-0.1l0,0c0.1,0.4,0.2,0.8,0.2,1.2c0,0.1-0.1,0.2-0.2,0.2c-0.1,0-0.1,0-0.1-0.1s0-0.1-0.1-0.2
		c-0.8,7.8-22.1,0.2-26.3-1.5c-0.2-0.1-0.3,0.2-0.1,0.3s0.4,0.2,0.7,0.3c0,0,0.1,0,0.1-0.1C-47.1,213.8-46.8,214.1-46.8,214.4z"/>
	<path id="Path_83116_00000114794611873777437810000008175077131206333869_" class="st3" d="M-22.7,211.2
		c-3.9-5.1-9.5-8.6-14.4-12.8c-0.1-0.1-0.3,0.1-0.2,0.2c4.9,4.4,10.3,8.1,14.6,13.2c0,0,0.1,0,0.1,0.1c-0.1-0.2-0.1-0.3-0.2-0.5
		C-22.8,211.4-22.8,211.3-22.7,211.2L-22.7,211.2z"/>
	<path id="Path_83117_00000073718830701375851240000017669701645021673372_" class="st3" d="M-42.6,209.5c-3.8-0.7-7.3-2.2-11-3.1
		c-0.2,0-0.3,0.2-0.1,0.2c3.5,1.2,7,2.3,10.6,3.2c2,0.4,4.5,0.8,6.4,0.2c4.5-1.4,0.4-5.9-1.6-7.6c-0.1-0.1-0.3,0.1-0.2,0.2
		c1.4,1.4,5.2,4.3,2.6,6.5c-1.2,1.1-3.5,0.8-4.9,0.6c-0.6-0.1-1.1-0.1-1.7-0.2C-42.5,209.5-42.5,209.5-42.6,209.5z"/>
	<path id="Path_83118_00000112616913276446559230000006815192128429011387_" class="st3" d="M-59.8,203.8c0.3,0.2,0.6,0.3,1,0.4
		c0.2,0.1,0.2-0.2,0.1-0.2c-0.3-0.1-0.6-0.2-0.9-0.4C-59.8,203.5-59.9,203.7-59.8,203.8z"/>
	<path id="Path_83119_00000163772348964713794170000016678570984294160263_" class="st3" d="M-83.5,189.8c0.8,0.7,1.7,1.3,2.5,1.9
		c3.9,2.9,8,5.6,12.2,8.1c0.2,0.1,0.3-0.1,0.2-0.3c-4.9-3.3-10.1-6.2-14.6-10.1c0,0.1,0,0.1-0.1,0.2
		C-83.3,189.8-83.4,189.8-83.5,189.8L-83.5,189.8z"/>
	<path id="Path_83120_00000159469295742474630190000008318065325351077566_" class="st3" d="M-83.5,189.2c-0.1-0.1-0.2-0.1-0.2-0.2
		c-1.6-1.4-6.2-5.7-3-7.7c1.8-1.1,4.8-0.1,7-0.1c0.1-0.1,0.2-0.3,0.3-0.4c-2.4-0.1-5.9-1.3-8,0.3c-1.6,1.2-0.8,3.3,0.1,4.7
		c1,1.5,2.3,2.8,3.7,4v-0.1C-83.6,189.5-83.6,189.3-83.5,189.2z"/>
	<path id="Path_83121_00000152961699126330623190000012719740403153736103_" class="st3" d="M-60.4,203.6c-2.2-1.2-4.5-2.2-6.8-3.2
		c-0.2-0.1-0.3,0.2-0.2,0.3c2.1,1.3,4.4,2.4,6.8,3.2C-60.4,203.9-60.3,203.7-60.4,203.6z"/>
	<path id="Path_83122_00000078045048289049471120000011339236382545086110_" class="st3" d="M-57.9,205.2c0.4,0.1,0.8,0.3,1.1,0.5
		s0.7,0.3,1.1,0.3c0.1,0,0.2-0.1,0.2-0.2c0-0.1,0-0.1-0.1-0.1c-0.3-0.2-0.7-0.3-1-0.4c-0.4-0.1-0.8-0.3-1.2-0.4
		c-0.1,0-0.2,0-0.2,0.1C-58,205.1-58,205.2-57.9,205.2z"/>
	<path id="Path_83123_00000034066042034536794700000014060853339267593862_" class="st3" d="M-79.4,180.8c-0.1,0.1-0.2,0.3-0.3,0.4
		c-2,2.2-3.3,5-3.8,8c0,0.1,0,0.3-0.1,0.4v0.1l0.1,0.1c0.1,0,0.2,0,0.2-0.1l0,0c0-0.1,0-0.1,0.1-0.2c1.1-4.1,3.5-7.8,6.8-10.6
		c3.5-2.9,7.5-4.4,11.7-5.7c-0.1,0-0.1,0-0.2,0c-0.1,0-0.2-0.1-0.2-0.2v-0.1c-4.3,0.8-8.4,2.7-11.8,5.5l-0.3,0.3
		C-78,179.3-78.7,180-79.4,180.8z"/>
	<path id="Path_83124_00000081638793748585200610000008234701355612880558_" class="st3" d="M-64.8,173.2c0.1,0,0.1,0,0.2,0
		c0.7,0,1.5,0.1,2.2,0.2c0.6,0.1,1.2,0,1.7-0.2c-0.2,0-0.4,0-0.6,0s-0.2-0.3,0-0.3h0.1c-0.6,0-1.2,0-1.9-0.1
		c-0.6-0.2-1.2-0.1-1.8,0.1c0,0,0,0-0.1,0.1s0,0.2,0,0.3C-64.9,173.2-64.9,173.2-64.8,173.2z"/>
	<path id="Path_83125_00000149357349253493800360000001103453041491646629_" class="st3" d="M-61.4,173.1c0.2,0,0.4,0,0.6,0
		c3,0,6,0.7,8.8,2c2.4,1.3,4.7,2.8,6.8,4.6c0-0.1,0.2-0.2,0.3-0.1c0.1,0,0.1,0.1,0.1,0.1c0,0.1,0.1,0.2,0.1,0.3
		c0.1,0,0.2-0.2,0.1-0.3c0,0,0,0,0-0.1c-3.5-4.4-11.1-7.9-16.7-6.8h-0.1C-61.6,172.8-61.6,173.1-61.4,173.1z"/>
	<path id="Path_83126_00000134209578190447846780000007083130520090785711_" class="st3" d="M-45.2,179.7v0.1
		c0.3,0.9,0.8,1.7,1.6,2.2c0.5,0.4,0.9,0.8,1.4,1.3c0.3,0.4,0.6,0.9,0.9,1.4c0.1,0,0.1,0,0.2,0c0.1,0.1,0.1,0.2,0.2,0.3
		c0.1,0,0.1-0.1,0.1-0.2c-0.1-2.2-2.8-3.1-3.8-4.8c-0.1-0.1-0.1-0.2-0.1-0.3c-0.1-0.1-0.2-0.2-0.3-0.1
		C-45.2,179.6-45.2,179.6-45.2,179.7z"/>
	<path id="Path_83127_00000144295731979345095820000015184935054694219924_" class="st3" d="M-41.4,184.6c-0.1,0-0.1,0.1-0.1,0.2
		c1.6,4.1,3.1,7.7,3,12.2c-0.1,4.4-1.6,8.6-4.2,12.1c-0.1,0.1,0,0.3,0.1,0.4c0.1,0,0.1,0,0.2,0c0.1,0,0.1,0,0.2-0.1
		c3.1-3.2,4.4-8,4.4-12.4c0-3.9-0.7-8.9-3.1-12.2c-0.1-0.1-0.1-0.2-0.2-0.3C-41.3,184.6-41.3,184.6-41.4,184.6z"/>
	<path id="Path_83128_00000168832407456391160010000005075441526122338734_" class="st3" d="M-79.6,210.1c-1.7-2.5-3-5.2-3.8-8.1
		c-0.6-2.2,0-4.8-0.9-6.9c0-0.1-0.1-0.2-0.1-0.2c-0.1-0.1-0.2-0.1-0.3-0.1l0,0c-0.1,0-0.1,0.1-0.1,0.2c0.7,2.8,0.3,5.6,1.1,8.4
		c0.8,2.5,1.7,5.2,3.7,6.9C-79.9,210.2-79.8,210.1-79.6,210.1C-79.7,210.1-79.7,210.1-79.6,210.1z"/>
	<path id="Path_83129_00000042009736972173233140000011840411916197559708_" class="st3" d="M-76.3,213.4c0.1,0.1,0.2,0.1,0.3,0.2
		c-0.6-1.7-1.9-3-3.6-3.5c-0.1,0-0.2,0-0.3,0.2v0.1c0,0.1,0.1,0.1,0.1,0.2c0.8,0.4,1.5,0.9,2.1,1.5c0.4,0.5,0.7,0.9,1,1.4
		C-76.6,213.4-76.5,213.3-76.3,213.4C-76.4,213.4-76.4,213.4-76.3,213.4z"/>
	<path id="Path_83130_00000076578549459664894360000000581166219020329146_" class="st3" d="M-68.4,217.8c0.2,0.1,0.3,0.2,0.5,0.4
		c0-0.1,0-0.2-0.1-0.2c-1.3-0.7-2.7-1.1-4.1-1.8c-1.4-0.7-2.8-1.6-4-2.5c-0.1-0.1-0.2-0.1-0.3-0.2c-0.1-0.1-0.2,0-0.3,0
		c0,0,0,0,0,0.1s0,0.1,0,0.2c1.1,1.1,2.4,2.1,3.9,2.8c1.3,0.8,2.7,1.4,4.2,1.8l-0.1-0.1C-68.8,217.9-68.6,217.6-68.4,217.8z"/>
	<path id="Path_83131_00000034773852449520825290000009178791660101338524_" class="st3" d="M-63.7,219.1c-0.6,0.1-1.2,0.1-1.8,0.1
		c-0.9-0.1-1.7-0.4-2.4-1c-0.2-0.1-0.3-0.2-0.5-0.4s-0.4,0.1-0.3,0.3l0.1,0.1c1.3,1.8,3.9,1.9,5.8,1.2l0.1-0.1
		c-0.3,0-0.6,0.1-0.9,0.1C-63.8,219.5-63.9,219.1-63.7,219.1z"/>
	<path id="Path_83132_00000002386310965149608260000002781564129408410504_" class="st3" d="M-46.8,214.4c0-0.3-0.3-0.6-0.5-0.3
		c0,0-0.1,0-0.1,0.1c-2.3,1.9-4.9,3.2-7.8,3.9c-2.8,0.8-5.7,0.1-8.5,1c-0.2,0.1-0.2,0.4,0.1,0.4c0.3-0.1,0.6-0.1,0.9-0.1
		c2.9-0.3,5.7,0,8.6-0.9c2.6-0.7,5.1-2,7.1-3.8C-46.8,214.5-46.8,214.5-46.8,214.4z"/>
	<path id="Path_83133_00000096052430228474553180000005160044380716845963_" class="st3" d="M-94.9,186c0-0.1,0-0.2,0-0.2
		c-1.7-2.3-4.2-4-4.9-6.9c-1.2-4.5,3.9-4.6,7-4.3c0.1,0,0.2,0,0.4,0c0.1,0,0.2-0.1,0.2-0.2s0-0.1-0.1-0.1c-0.1-0.1-0.3-0.1-0.4-0.1
		c-2.7-0.8-7.2-0.5-7.8,2.9c-0.5,3,2.4,6.9,4.9,8.7c0.2,0.1,0.4,0.2,0.5,0.3C-95.1,186.2-94.9,186.1-94.9,186L-94.9,186z"/>
	<path id="Path_83134_00000048484786908018915190000004076502975890307511_" class="st3" d="M-31.4,215.9c-0.1,0-0.2,0-0.2,0.1
		s0,0.2,0.1,0.2l0,0c2,0.9,11.1,0.6,8.4-3.5c-0.1-0.1-0.4,0-0.3,0.1C-22.3,216.7-29.1,216.6-31.4,215.9z"/>
	<path id="Path_83135_00000055706059506126379620000011017261794200395918_" class="st3" d="M-97.5,176.6c0.1,0,0.1-0.2,0.1-0.3
		c0-0.1-0.1-0.1-0.2-0.1c-4.7,2.1,8.2,13.3,10.4,14.6c0.1,0,0.1,0,0.2,0c0-0.1,0-0.1,0-0.2C-88.8,189.1-101.3,178.7-97.5,176.6z"/>
	<path id="Path_83136_00000174595148088471212900000014688202144786795907_" class="st3" d="M-84.6,177.3c-3.7-1.1-8.1-2.6-11.9-1.8
		c-0.1,0-0.1,0.1-0.1,0.2s0.1,0.1,0.2,0.1c4.1-0.2,7.8,0.9,11.8,1.8C-84.5,177.6-84.4,177.3-84.6,177.3z"/>
	<path id="Path_83137_00000106138704574938868240000017419424387918092477_" class="st3" d="M-81.9,178.5c0.3,0.1,0.4-0.3,0.2-0.4
		c-0.5-0.2-1-0.4-1.5-0.6c-0.2-0.1-0.3,0.2-0.1,0.3C-82.9,178.1-82.4,178.3-81.9,178.5z"/>
	<path id="Path_83138_00000061446887877419833250000006433248438585168309_" class="st3" d="M-86.8,179.9c0.2-0.1,0.1-0.3-0.1-0.3
		c-1.3,0.2-3,0.8-3.3,2.4c-0.2,1.5,0.9,3.2,1.7,4.3c0.1,0.1,0.2,0.1,0.2,0c0.1,0,0.1-0.1,0-0.2c-0.6-1.1-1.4-2.2-1.6-3.5
		C-89.9,180.8-88.1,180.3-86.8,179.9z"/>
	<path id="Path_83139_00000128443002434847231890000012722606684999306664_" class="st3" d="M-82.5,191.4c-1.5-1.1-2.9-2.3-4.2-3.6
		c-0.1-0.1-0.2-0.1-0.2,0c-0.1,0.1-0.1,0.2,0,0.2l0,0c1.3,1.4,2.7,2.6,4.2,3.7C-82.5,191.8-82.4,191.5-82.5,191.4z"/>
	<path id="Path_83140_00000070099308139076458700000013594454425415864221_" class="st3" d="M-69.9,202.2c0.2,0.1,0.3-0.2,0.2-0.3
		c-5.5-3.1-10.6-6.9-16.1-10c-0.2-0.1-0.3,0.1-0.2,0.2C-80.9,195.7-75.5,199.5-69.9,202.2z"/>
	<path id="Path_83141_00000105397219901993485150000006172815824895810949_" class="st3" d="M-68.1,203c-0.2-0.1-0.4,0.1-0.2,0.3
		s0.4,0.4,0.7,0.5c0.2,0.2,0.5,0.2,0.7,0.2c0.1,0,0.2-0.1,0.1-0.2v-0.1c-0.2-0.1-0.4-0.2-0.6-0.3C-67.7,203.2-67.9,203.1-68.1,203z"
		/>
	<path id="Path_83142_00000057837381539045568600000012534326832532943283_" class="st3" d="M-62.6,204.4
		c-5.5-2.9-10.7-6.1-15.7-9.7c-0.2-0.1-0.3,0.1-0.2,0.2c4.9,3.8,10.1,7,15.7,9.6C-62.6,204.7-62.5,204.5-62.6,204.4z"/>
	<path id="Path_83143_00000089573920351051680900000010862413653548168365_" class="st3" d="M-35.9,203c2.1,2.1,8.1,5.5,6.9,9.2
		c0,0.1,0,0.2,0.1,0.3c0.1,0,0.2,0,0.3-0.1c1.6-3.8-4.9-7.5-7-9.5C-35.8,202.7-36,202.9-35.9,203z"/>
	<path id="Path_83144_00000127031698618493530320000004123574022723848125_" class="st3" d="M-32.8,203.5c-0.1-0.1-0.3,0.1-0.2,0.2
		c1.6,1.6,10.1,7.5,6.3,9.7c-0.1,0.1-0.1,0.2-0.1,0.3s0.2,0.1,0.3,0.1C-21.5,211.8-31.4,204.8-32.8,203.5z"/>
	<path id="Path_83145_00000005966562923902370760000013988084992847414959_" class="st3" d="M-42.9,213.1
		c-5.9-1.9-11.8-4.1-17.5-6.5c-0.2-0.1-0.3,0.2-0.1,0.3c5.5,2.6,11.2,4.9,16.9,6.8C-43.6,213.3-43.3,213.1-42.9,213.1z"/>
	<path id="Path_83146_00000089566128724897803580000007506136814604997029_" class="st3" d="M-42.4,214c2.5,0.7,5.2,1.3,7.8,1.5
		c0.2,0,0.2-0.2,0-0.3c-2.8-0.6-5.4-1.3-8.1-2.1C-42.4,213.4-42.3,213.7-42.4,214z"/>
	<path id="Path_83147_00000181051441812976554140000017646899534314774926_" class="st3" d="M-93.2,177.9c0.2,0,0.1-0.3,0-0.3
		c-1.1,0-2.2,0.4-2,1.8s0.9,2.7,2,3.7c0.1,0.1,0.3-0.1,0.3-0.2C-93.6,181.3-96.6,178.3-93.2,177.9z"/>
	<path id="Path_83148_00000101062444342100660330000015358432701358372013_" class="st3" d="M-92.2,180.1c-0.2,0.2-0.2,0.5-0.1,0.8
		c0,0.1,0.2,0.2,0.3,0c0.1-0.4,0-0.8,0.6-0.9c0.2,0,0.2-0.3,0-0.3C-91.8,179.7-92.1,179.8-92.2,180.1z"/>
	<path id="Path_83149_00000003814528858635336620000003345043402123054516_" class="st3" d="M-90.5,185.1c-0.2-0.2-0.4-0.3-0.5-0.5
		c-0.2-0.2-0.4,0.1-0.3,0.2c0.2,0.2,0.3,0.4,0.5,0.5c0.1,0.1,0.3,0.4,0.5,0.4c0.1,0,0.3-0.1,0.2-0.2
		C-90.1,185.4-90.3,185.2-90.5,185.1z"/>
	<path id="Path_83150_00000033350367303008850230000009646606746993696926_" class="st3" d="M-61.3,210.8c-0.8-0.6-1.7-1-2.6-1.2
		c-0.1,0-0.2,0-0.2,0.1s0,0.2,0.1,0.2c0.9,0.4,1.7,0.8,2.6,1.2C-61.3,211.2-61.2,210.9-61.3,210.8z"/>
	<path id="Path_83151_00000170257446141690983110000006683289161037949335_" class="st3" d="M-64,213.6c-1.1-0.9-2.3-1.6-3.7-2.1
		c-0.2-0.1-0.4,0.3-0.1,0.4c1.3,0.6,2.5,1.2,3.6,1.9C-64.1,213.8-64,213.8-64,213.6C-63.9,213.7-63.9,213.6-64,213.6z"/>
	<path id="Path_83152_00000053540446232257436490000002001487541205677231_" class="st3" d="M-66.4,214.5c0.1,0.1,0.3,0,0.2-0.2
		c-0.3-0.5-1-0.8-1.4-1.2c-0.2-0.1-0.4,0.1-0.2,0.3s0.4,0.4,0.7,0.6C-66.9,214.2-66.7,214.4-66.4,214.5z"/>
	<path id="Path_83153_00000041976279567806431900000008825511125280608671_" class="st3" d="M-64.4,218.5c0.2,0.1,0.3-0.2,0.2-0.3
		c-3.5-1.9-7.4-2.7-10.6-5.3c-0.1-0.1-0.3,0.1-0.2,0.2C-71.9,215.8-67.9,216.8-64.4,218.5z"/>
	<path id="Path_83154_00000031921906227855695670000002148739840343710612_" class="st3" d="M-66.3,210.3c0.1,0,0.2,0,0.2-0.1
		s0-0.1-0.1-0.2c-0.5-0.3-1.1-0.6-1.6-0.9c-0.2-0.1-0.4,0.2-0.2,0.3C-67.5,209.8-66.9,210.1-66.3,210.3z"/>
	<path id="Path_83155_00000119080973566783622880000012295327659155289764_" class="st3" d="M-65.9,174.8c0.2,0,0.2-0.2,0.1-0.3
		c-0.2-0.1-0.5-0.1-0.7-0.1c-0.3,0.1-0.6,0.2-0.8,0.4c-0.1,0.1,0,0.3,0.1,0.3C-66.8,174.9-66.4,174.8-65.9,174.8z"/>
	<path id="Path_83156_00000101791639748455189450000008665506243872906678_" class="st3" d="M-68.5,175.2c-4.5,1.1-9.6,4.9-11.7,9.2
		c-0.1,0.2,0.3,0.4,0.4,0.2c2.7-4,6.6-7.7,11.3-9.1C-68.2,175.4-68.3,175.1-68.5,175.2z"/>
	<path id="Path_83157_00000139255186369429112520000009590340607175319969_" class="st3" d="M-73.1,179.3c-0.5,0.2-0.9,0.6-1.2,1.1
		c-0.1,0.1,0.1,0.3,0.2,0.2c0.4-0.3,0.8-0.6,1.2-0.9C-72.7,179.5-72.9,179.2-73.1,179.3z"/>
	<path id="Path_83158_00000136398213272051608090000007506409708022201734_" class="st3" d="M-80.6,189.2c0.9-1.3,1.6-2.8,2.4-4.2
		c0.9-1.5,2.1-2.8,3.5-3.9c0.2-0.1,0-0.3-0.2-0.2c-2.7,2.1-4.8,4.9-6,8.1c0,0.1,0,0.2,0.1,0.2C-80.7,189.3-80.6,189.2-80.6,189.2z"
		/>
	<path id="Path_83159_00000163786453841320598910000017143242462965616308_" class="st3" d="M-81.1,186.5c-0.2,0.7-0.4,1.4-0.7,2.1
		c0,0.1,0,0.2,0.1,0.2s0.1,0,0.2-0.1c0.5-0.7,0.8-1.4,0.9-2.3C-80.6,186.2-81,186.2-81.1,186.5z"/>
	<path id="Path_83160_00000034782796629461769230000015970527505340897192_" class="st3" d="M-41.8,204.7c3.1-3.4,1.9-8.8,1.8-12.9
		c0-0.2-0.3-0.2-0.3,0c-0.4,4.6,0.8,8.5-1.7,12.7C-42.2,204.7-42,204.9-41.8,204.7z"/>
	<path id="Path_83161_00000002342192487530135780000009110013013938577543_" class="st3" d="M-43.3,205.8c-0.1,0.2-0.2,0.4-0.3,0.6
		c-0.1,0.2-0.3,0.4-0.4,0.6c-0.1,0.1,0.1,0.3,0.2,0.2c0.4-0.3,0.7-0.8,0.8-1.3C-42.9,205.7-43.2,205.5-43.3,205.8z"/>
	<path id="Path_83162_00000165200938256234924320000007312542072106783372_" class="st3" d="M-42,195.7c0-0.1-0.2-0.2-0.3-0.1
		c-0.1,0-0.1,0.1-0.1,0.2c0.5,3.9-0.7,7.8-3.4,10.6c-0.1,0.1,0,0.4,0.2,0.3C-42.5,205.2-41.1,198.9-42,195.7z"/>
	<path id="Path_83163_00000007420648916375626130000015282242940496088243_" class="st3" d="M-47,205.9c1.3-1.3,2-3.1,1.8-4.9
		c0-0.1-0.1-0.2-0.2-0.2c-0.1,0-0.2,0.1-0.2,0.2c0.2,1.8-0.8,3.2-1.6,4.7C-47.3,205.8-47.1,206-47,205.9z"/>
	<path id="Path_83164_00000006709549320800216520000012253643254118990525_" class="st3" d="M-56.5,174.6c-0.2,0-0.3,0.3,0,0.4
		c3.9,0.7,7.8,2.6,10,5.9c0.1,0.2,0.3,0,0.3-0.2C-47.9,177.1-52.8,175.2-56.5,174.6z"/>
	<path id="Path_83165_00000140715306507376794540000008573517145584215699_" class="st3" d="M-44.8,182.4c-0.1-0.4-0.3-0.7-0.6-0.9
		c-0.2-0.2-0.5,0.1-0.3,0.2c0.2,0.2,0.4,0.5,0.5,0.8c0,0.1,0.1,0.1,0.2,0.1C-44.9,182.6-44.8,182.5-44.8,182.4z"/>
	<path id="Path_83166_00000128445557040389111890000012910762541398446470_" class="st3" d="M-43.9,183c-0.2-0.2-0.4,0.1-0.3,0.2
		c0.4,0.4,0.9,0.9,1.3,1.4c0.3,0.5,0.6,1,0.9,1.6c0,0.1,0.2,0.1,0.2,0.1c0.1,0,0.1-0.1,0.1-0.2C-41.8,184.9-43.1,183.8-43.9,183z"/>
	<path id="Path_83167_00000029747899466555007320000003440443895525297841_" class="st3" d="M-48.7,180.5c-1.3-1-2.6-1.9-4-2.7
		c-0.2-0.1-0.4,0.2-0.2,0.3c1.4,0.9,2.7,1.8,4.1,2.7c0.1,0,0.1,0,0.2,0C-48.6,180.6-48.6,180.5-48.7,180.5z"/>
	<path id="Path_83168_00000089562818994147711940000008314379742102786476_" class="st3" d="M-47.1,182.1c-0.2-0.1-0.3,0.1-0.2,0.2
		c1.8,1.5,3.1,3.5,3.6,5.7c0,0.2,0.3,0.2,0.3,0C-43.3,185.7-45.4,183.5-47.1,182.1z"/>
	<path id="Path_83169_00000098925511463255473030000003816027612413776293_" class="st3" d="M-72.9,182.3c-0.3,0.2-0.5,0.5-0.6,0.8
		c0,0.1,0,0.2,0.1,0.2h0.1c0.3-0.1,0.5-0.4,0.7-0.6l0,0C-72.5,182.5-72.7,182.1-72.9,182.3z"/>
	<path id="Path_83170_00000054952730038651003580000007373889673608619421_" class="st3" d="M-78.4,191.3c0.2-1.3,0.7-2.7,1.3-3.9
		c0.7-1.2,1.6-2.2,2.6-3.2c0.1-0.1-0.1-0.4-0.2-0.2c-1.9,1.9-4.1,4.3-4,7.2C-78.7,191.4-78.4,191.5-78.4,191.3z"/>
	<path id="Path_83171_00000005228703547005995050000006217042787664133033_" class="st3" d="M-77.2,192c1-1.9,1.2-4.1,3-5.6
		c0.2-0.1,0-0.4-0.2-0.3c-1.8,1.3-2.5,3.7-3.1,5.7c0,0.1,0,0.2,0.1,0.2C-77.3,192.1-77.2,192-77.2,192z"/>
	<path id="Path_83172_00000183217701658375878900000018071360243202351248_" class="st3" d="M-72.3,186.4c-1.7,1.7-3.7,4.2-3.7,6.7
		c0,0.2,0.3,0.3,0.3,0.1c0.3-1.2,0.7-2.4,1.3-3.5c0.7-1.1,1.5-2.1,2.4-3C-71.8,186.5-72.1,186.2-72.3,186.4z"/>
	<path id="Path_83173_00000064334320199738620040000018020083035660003734_" class="st3" d="M-74.6,191.8c-0.2,0.4-0.4,0.9-0.5,1.4
		c0,0.1,0.1,0.2,0.1,0.2c0.1,0,0.1,0,0.1-0.1c0.3-0.4,0.4-0.9,0.6-1.4C-74.1,191.7-74.5,191.6-74.6,191.8z"/>
	<path id="Path_83174_00000043456785379383853570000012425250682398954907_" class="st3" d="M-50.2,205.6c2.2-2.1,1.7-6.7,1.3-9.4
		c0-0.2-0.3-0.1-0.3,0.1c0.3,3,0.6,6.5-1.2,9.1C-50.5,205.6-50.3,205.8-50.2,205.6z"/>
	<path id="Path_83175_00000151537777717569742230000013112040882664611213_" class="st3" d="M-48.7,204.9c0.6-0.5,1-1.2,1.1-2
		c0-0.2-0.3-0.3-0.4-0.1c-0.2,0.7-0.6,1.3-1,1.9c0,0.1,0,0.2,0.1,0.2C-48.8,205-48.8,205-48.7,204.9z"/>
	<path id="Path_83176_00000155850614345524857100000005366428686014204833_" class="st3" d="M-51.4,205.2c0.6-0.5,0.9-1.2,1-1.9
		c0-0.2-0.3-0.3-0.4,0c-0.1,0.3-0.2,0.6-0.3,0.9c-0.2,0.3-0.4,0.5-0.5,0.8c-0.1,0.1,0,0.2,0,0.2C-51.5,205.3-51.5,205.3-51.4,205.2z
		"/>
	<path id="Path_83177_00000145045401843150689620000014117366796186048687_" class="st3" d="M-62.7,217.7c4.6,0.7,9.4-0.3,13.3-2.8
		c0.3-0.2-0.1-0.6-0.3-0.4c-3.9,2.6-8.5,3-13,2.9c-0.1,0-0.2,0.1-0.2,0.2C-62.9,217.6-62.8,217.6-62.7,217.7z"/>
	<path id="Path_83178_00000156578507848459168090000011972881457217785257_" class="st3" d="M-61.9,215.8c-0.2,0.2,0.1,0.5,0.3,0.3
		s0.4-0.1,0.6,0c0.1,0,0.2,0,0.2-0.1v-0.1c-0.2-0.3-0.6-0.4-0.9-0.3C-61.8,215.7-61.8,215.7-61.9,215.8z"/>
	<path id="Path_83179_00000075158582585533899730000011886658822133640578_" class="st3" d="M-59.2,216c2.7-0.1,5.3-0.7,7.7-1.8
		c0.3-0.1,0.1-0.5-0.2-0.4c-2.4,1-5,1.7-7.6,1.9C-59.5,215.7-59.4,216-59.2,216z"/>
	<path id="Path_83180_00000075872398216019421150000010505212848714572945_" class="st3" d="M-55.7,214.1c0.5-0.1,1,0,1.5-0.2
		c0.1,0,0.2-0.3,0-0.3c-0.5-0.1-1.1-0.1-1.6,0.1C-56,213.8-55.9,214.1-55.7,214.1z"/>
	<path id="Path_83181_00000119097778476926833630000010597226840967793075_" class="st3" d="M-82.7,197.5c-1.1,3.1,0.6,6.7,2,9.3
		c0,0.1,0.1,0.1,0.2,0c0.1,0,0.1-0.1,0.1-0.2c-1.2-2.8-2.9-6-2-9.1C-82.3,197.4-82.6,197.3-82.7,197.5z"/>
	<path id="Path_83182_00000054232996529054816900000001172903625451571130_" class="st3" d="M-79.9,205.1c-0.3-2.2-1.3-4.2-1.1-6.5
		c0-0.1-0.1-0.2-0.2-0.2c-0.1,0-0.2,0.1-0.2,0.2c-0.4,2.2,0.5,4.6,1.2,6.6C-80.1,205.3-79.9,205.2-79.9,205.1z"/>
	<path id="Path_83183_00000107580979186166945210000016455545906398845075_" class="st3" d="M-79.8,206.6c0.1,1.1,0.6,2.1,1.3,2.9
		c0.1,0.1,0.2,0.1,0.2,0c0,0,0.1-0.1,0-0.2c-0.5-0.9-0.9-1.8-1.2-2.8c0-0.1-0.1-0.1-0.2-0.1C-79.7,206.5-79.8,206.6-79.8,206.6z"/>
	<path id="Path_83184_00000088094951121320854340000005786819969692859314_" class="st3" d="M-77.6,207.6c-1.3-2.4-1.9-5.1-1.7-7.8
		c0-0.1-0.1-0.1-0.2-0.1c-0.1,0-0.1,0-0.1,0.1c-0.2,2.8,0.4,5.5,1.7,7.9C-77.8,207.9-77.5,207.8-77.6,207.6z"/>
	<path id="Path_83185_00000060721700699181014250000002893751153364934055_" class="st3" d="M-77.6,202c0.1-0.3,0.1-0.6,0.1-1
		c0-0.2-0.3-0.2-0.3,0c-0.1,0.3-0.1,0.7-0.1,1C-77.9,202.2-77.7,202.1-77.6,202z"/>
	<path id="Path_83186_00000044864551338717577650000003510532086723409579_" class="st3" d="M-76.3,207.3c-0.5-1.2-1-2.4-1.2-3.6
		c0-0.2-0.3-0.2-0.3,0.1c0.2,1.3,0.6,2.6,1.3,3.7c0,0.1,0.1,0.1,0.2,0.1C-76.3,207.5-76.2,207.4-76.3,207.3z"/>
	<path id="Path_83187_00000140719463013824224820000000349678094508073376_" class="st3" d="M-76.2,210.8c0.3,0.3,0.6,0.6,0.9,0.8
		c0.1,0.1,0.3-0.1,0.2-0.2c-0.2-0.4-0.5-0.7-0.9-0.9c-0.3-0.3-0.6-0.6-1-0.9c-0.1-0.1-0.3,0.1-0.2,0.2
		C-76.8,210.2-76.5,210.5-76.2,210.8z"/>
	<path id="Path_83188_00000168831554103446767650000000704294507041980831_" class="st3" d="M-74.6,210.2c0.2-0.5-0.1-0.8-0.4-1.1
		c-0.2-0.2-0.5,0.1-0.3,0.2c0.2,0.2,0.4,0.5,0.4,0.8c0,0.1,0.1,0.2,0.1,0.2C-74.7,210.3-74.6,210.2-74.6,210.2z"/>
	<path id="Path_83189_00000096753209254318437760000007773866628152644532_" class="st3" d="M-69.4,213.6c-1.7-0.6-3.2-1.5-4.6-2.6
		c-0.2-0.1-0.4,0.1-0.2,0.3c1.3,1.3,2.9,2.2,4.7,2.7C-69.3,214-69.2,213.6-69.4,213.6z"/>
	<path id="Path_83190_00000008123755085912844580000014057811417719735221_" class="st3" d="M-71.8,213.6c-0.2-0.1-0.4,0.1-0.2,0.3
		s0.5,0.3,0.7,0.4c0.1,0.1,0.3-0.1,0.2-0.2C-71.2,213.8-71.6,213.8-71.8,213.6z"/>
	<path id="Path_83191_00000105397076200129482980000016775898440550816685_" class="st3" d="M-69.9,214.8c1.5,0.8,3.1,1.4,4.8,1.8
		c0.2,0,0.3-0.3,0.1-0.3c-1.6-0.5-3.2-1-4.7-1.7C-70,214.5-70.1,214.8-69.9,214.8z"/>
	<path id="Path_83192_00000134930082238671939080000016349752934785371032_" class="st3" d="M-62.8,179.7c-0.1,0.2,0.1,0.4,0.3,0.2
		c0.4-0.3,0.8-0.4,1.2-0.4c0.5,0.1,1,0.4,1.2,0.8c0.1,0.2,0.4,0.1,0.3-0.1C-60,178.9-62,178.7-62.8,179.7z"/>
	<path id="Path_83193_00000160909678457566821260000003511617764162447745_" class="st3" d="M-59.5,180.7c-0.1,0.1,0.1,0.3,0.2,0.2
		c0.3-0.2,0.6-0.4,1-0.3c0.3,0.1,0.6,0.1,0.9,0.2c0.1,0,0.2-0.1,0.2-0.2v-0.1C-57.9,180-58.9,180-59.5,180.7L-59.5,180.7z"/>
	<path id="Path_83194_00000070099023576311008580000004986564315469346200_" class="st3" d="M-46.8,189.6c0.2,0.5,0.2,1,0.1,1.6
		c0,0.1,0,0.1,0.1,0.1h0.1h0.1l0,0c0.7-1.2-0.3-2.6-1.3-3.1c-0.2-0.1-0.3,0.2-0.1,0.3C-47.4,188.7-47,189.1-46.8,189.6z"/>
	<path id="Path_83195_00000065059806374131194700000013086674683389684397_" class="st3" d="M-46.6,191.3c-0.1,0.1-0.1,0.2,0,0.3
		c0,0,0,0,0.1,0.1c0.4,0.1,0.8,0.5,1,0.9c0.1,0.4,0.1,0.8,0.2,1.2c0,0.1,0.1,0.2,0.2,0.1c0.1,0,0.1-0.1,0.1-0.1
		c0.2-0.5,0.1-1.1-0.1-1.6c-0.2-0.5-0.6-0.8-1.1-0.9h-0.1C-46.5,191.3-46.6,191.3-46.6,191.3z"/>
	<path id="Path_83196_00000031191248649689054840000007957114051743608233_" class="st3" d="M-45,197.3c0.3-0.3,0.4-0.7,0.4-1.1
		c-0.1-0.4-0.4-0.7-0.7-0.8c-0.1,0-0.2,0-0.2,0.1s0,0.2,0.1,0.2l0,0c0.3,0.1,0.5,0.4,0.4,0.7c0,0.3-0.2,0.5-0.3,0.8
		c0,0.1,0.1,0.2,0.2,0.2C-45.1,197.3-45,197.3-45,197.3z"/>
	<path id="Path_83197_00000020370981626196122730000010712010883827903120_" class="st3" d="M-69.8,189.4c-0.1,0.1,0,0.2,0,0.2
		c0.1,0.1,0.2,0,0.2,0c0.2-0.4,0.6-0.7,0.9-0.9c0.4-0.1,0.9-0.1,1.3,0.1c0,0,0-0.1,0.1-0.1l0.1-0.1l0,0
		C-68.2,187.8-69.2,188.5-69.8,189.4z"/>
	<path id="Path_83198_00000178170891391507952580000003829569862349633709_" class="st3" d="M-67.3,188.8c0,0.1,0.1,0.2,0.2,0.1h0.1
		c0.2-0.2,0.5-0.4,0.7-0.5c0.3-0.1,0.6,0,0.9,0.1c0.1,0,0.3-0.1,0.2-0.2c-0.6-0.6-1.4-0.2-1.9,0.3l-0.1,0.1
		C-67.3,188.7-67.3,188.8-67.3,188.8z"/>
	<path id="Path_83199_00000171699465960030006380000011225014954742961331_" class="st3" d="M-75.5,204.2c-0.1,0-0.2,0-0.2,0.1
		s0,0.2,0.1,0.2c0.3,0.1,0.6,0.4,0.7,0.7c0.1,0.3,0.1,0.7,0,1.1c0,0.1,0.1,0.2,0.1,0.2c0.1,0,0.1,0,0.1-0.1c0.3-0.4,0.3-0.9,0.1-1.4
		C-74.7,204.6-75.1,204.3-75.5,204.2z"/>
	<path id="Path_83200_00000029755249041170326110000006309478082777951640_" class="st3" d="M-74.7,206.5c-0.2,0-0.2,0.3,0,0.4
		c0.2,0,0.4,0.1,0.6,0.3c0.1,0.2,0.2,0.4,0.3,0.6c0,0.1,0.1,0.1,0.2,0.1c0,0,0.1,0,0.1-0.1c0.1-0.3,0-0.7-0.3-0.9
		C-74,206.6-74.3,206.5-74.7,206.5z"/>
	<path id="Path_83201_00000135671026820997856650000016767074178870110640_" class="st3" d="M-69.3,195.1
		C-69.3,195-69.4,195-69.3,195.1c-0.3-0.3-0.5-0.5-0.7-0.7c-0.2-0.3-0.3-0.6-0.4-0.9c0-0.1-0.1-0.1-0.2-0.1c-0.1,0-0.1,0.1-0.1,0.2
		c0.1,0.8,0.5,1.4,1.2,1.8v-0.1C-69.5,195.1-69.4,195-69.3,195.1z"/>
	<path id="Path_83202_00000055685101025911569520000017831851290132205442_" class="st3" d="M-68.6,197c0.1,0,0.3-0.1,0.2-0.2
		c-0.2-0.2-0.5-0.3-0.7-0.6s-0.2-0.6-0.1-0.9c0-0.1,0-0.2-0.1-0.2l0,0c-0.1,0-0.2,0-0.2,0.1v0.1C-69.8,196-69.4,196.7-68.6,197
		L-68.6,197z"/>
	<path id="Path_83203_00000039835861792664260800000000038627125591594368_" class="st3" d="M-70.6,178c0.3-0.6,1.1-0.8,1.7-0.5l0,0
		c-0.1,0-0.1-0.1-0.1-0.2c0,0,0,0,0-0.1l0.1-0.1c-0.7-0.4-1.6-0.1-2,0.6C-71,178-70.7,178.2-70.6,178z"/>
	<path id="Path_83204_00000132053044264363509860000003873345882514327475_" class="st3" d="M-68.8,177.5L-68.8,177.5L-68.8,177.5z"
		/>
	<path id="Path_83205_00000005253985657828054500000017205730671980122247_" class="st3" d="M-68.9,177.5L-68.9,177.5
		C-68.8,177.5-68.8,177.5-68.9,177.5c0.3-0.2,0.6-0.5,0.8-0.7c0.1-0.1-0.1-0.3-0.2-0.2c-0.2,0.2-0.4,0.4-0.6,0.6l-0.1,0.1
		C-69.1,177.4-69,177.5-68.9,177.5z"/>
	<path id="Path_83206_00000109748637639053626690000001114712370758561154_" class="st3" d="M-61.9,174.4
		C-61.9,174.3-61.9,174.3-61.9,174.4c-0.5-0.4-1.2-0.4-1.7-0.2c-0.1,0-0.1,0.1-0.1,0.2s0.1,0.1,0.2,0.1c0.5-0.2,0.9-0.1,1.4,0.1
		c0.1,0,0.2,0,0.2-0.1C-61.9,174.5-61.9,174.4-61.9,174.4z"/>
	<path id="Path_83207_00000048491258723371039410000002260147556669754813_" class="st3" d="M-61.9,174.3c-0.1,0.1-0.1,0.1,0,0.2
		l0,0c0.1,0.1,0.2,0.1,0.2,0c0.4-0.3,1-0.4,1.5-0.3c0.1,0,0.3-0.2,0.1-0.3C-60.7,173.7-61.4,173.8-61.9,174.3z"/>
	<path id="Path_83208_00000048489252794521250350000011638163555605936781_" class="st3" d="M-42.1,190.1c0.4-0.4,0.4-1.1,0-1.5l0,0
		c-0.1-0.1-0.3,0-0.2,0.2c0.4,0.5,0.2,0.9-0.1,1.3c0-0.1,0.1-0.1,0.2-0.1C-42.2,190.1-42.2,190.1-42.1,190.1z"/>
	<path id="Path_83209_00000145739752779473983000000011936484311648986780_" class="st3" d="M-42.1,190.1c-0.1,0-0.1-0.1-0.2-0.1
		c-0.1,0-0.1,0-0.2,0.1c0,0.1,0,0.1,0,0.2l0,0c0.2,0.1,0.4,0.4,0.6,0.6c0.1,0.2,0.1,0.5,0.2,0.7c0,0.1,0.1,0.1,0.2,0.1
		c0,0,0.1,0,0.1-0.1c0.1-0.3,0-0.6-0.2-0.9C-41.7,190.5-41.9,190.3-42.1,190.1z"/>
	<path id="Path_83210_00000122709286203841130770000002055769065796053933_" class="st3" d="M-21.4,215.1c-0.1-0.4-0.1-0.8-0.2-1.2
		c-0.2-0.9-0.5-1.8-0.9-2.6c0-0.1-0.1-0.1-0.2-0.1l0,0c-0.1,0-0.1,0.1-0.1,0.2l0,0c0.1,0.2,0.1,0.3,0.2,0.5c0.3,1,0.6,2,0.8,3
		c0,0.1,0,0.1,0.1,0.2C-21.7,215.2-21.6,215.2-21.4,215.1C-21.4,215.3-21.4,215.2-21.4,215.1z"/>
	<path id="Path_83211_00000068664944527893894200000000909467952196931200_" class="st3" d="M-43.6,214c0.1,0.1,0.1,0.2,0.1,0.3
		c0.1,0.3,0.4,0.4,0.7,0.2c0.1-0.1,0.2-0.2,0.2-0.3s0-0.1,0.1-0.1V214c0.1-0.3,0-0.7-0.2-0.9c-0.1-0.1-0.2-0.1-0.3-0.1
		c-0.4,0-0.7,0.2-0.7,0.6C-43.7,213.8-43.6,213.9-43.6,214z"/>
</g>
<g>
	<path class="st3" d="M1254.1,37.7c6,2.5,11.8,4.8,17.8,7.2c0,0.2-0.4,24.6-0.4,24.4c0.2,2.7,1.2,4.5,2.5,5.6
		c6.4,6.2,21.5,7.4,30.6,7.7c9.1-0.2,24-1.2,30.6-7.7c2.9-2.5,2.5-6.2,2.5-6.4c-0.2-5.8-0.4-21.1-0.4-23.4c2.1-0.8,4.1-1.7,6.2-2.5
		c0,4.1,0.2,8.3,0.4,12.4c0.4,5,0.8,10.1,1.4,15.1c-0.8-0.2-1.9,0-2.7,0.4c-0.8,0.4-1.4,1-2.1,1.9c-1.2,1.4-2.1,3.1-2.5,5
		c-0.6,1.9,0,4.3,1.2,6.2c1,1.4,2.7,2.5,4.5,2.7c-0.2,0.2-0.2,0.4-0.2,0.6c-0.2,0.8-0.4,1.7-0.4,2.7c0,0.8,0.2,1.7,0.4,2.7
		c0.4,0.8,0.8,1.7,1.7,2.7c0.8-0.8,1.2-1.7,1.7-2.7c0.2-0.8,0.4-1.7,0.4-2.7c0-0.8-0.2-1.7-0.4-2.7c0-0.2-0.2-0.4-0.2-0.6
		c1.9-0.4,3.5-1.2,4.5-2.7c1.4-1.7,1.9-4.1,1.2-6.2c-0.4-1.9-1.2-3.5-2.5-5c-0.6-0.6-1.2-1.4-2.1-1.9c-0.8-0.4-1.9-0.6-2.7-0.4
		c1.7,0.6,2.5,2.1,3.1,3.3c0.6,1.4,1,2.9,1,4.3c0.2,2.7-1.9,4.5-3.9,4.5c-2.1,0-4.1-1.9-3.9-4.5c0-1.4,0.4-2.9,1-4.3
		c0.6-1.4,1.4-2.9,3.1-3.3c1.2-8.7,1.9-20.3,2.1-29.2c2.5-1,5-2.1,7.4-3.1c0.4-0.2,0.6-0.4,0.8-0.8c0.2-0.8-0.2-1.7-1-2.1
		c-18.8-7.2-40.9-15.1-50.7-18.2c5.6,2.5,22.7,9.9,45.3,19.2c-1.4,0.6-2.9,1-4.3,1.7c-3.3-0.4-6.8-0.6-10.1-0.8
		c-6.6-0.6-17.8-1-25.4-0.8v-0.2c0,0,0,0.2-0.2,0.2c-1.7,0-3.3,0-5,0.2c1.4,0.4,2.7,0.6,4.1,0.8c-1.2,1-3.1,1.2-4.5,1
		c-1.2-0.2-3.7-1-3.5-2.3c-0.2-1,2.3-2.1,3.5-2.3c2.3-0.2,4.8,0.2,5.6,2.3c0.8-2.1-1.4-5-5.6-5.4c-4.3-0.4-7.7,2.3-7.7,5.6
		s3.3,5.8,7.7,5.4c2.5-0.2,5-1.7,5.6-3.9c7.7,1.4,18.8,2.9,25.2,3.5c0.6,0,1.2,0,1.9,0.2c-17.2,6.4-11.2,4.3-32.3,12.4
		c-7.9-3.1-25.4-9.9-45.3-17.2c19-7.9,37.2-15.7,45.3-19.2c-9.9,2.7-31.8,10.5-50.5,17.4c-0.4,0.2-0.8,0.4-0.8,0.8
		C1252.8,36.3,1253.2,37.3,1254.1,37.7L1254.1,37.7z M1333.7,68.1c0,2.3-0.6,3.1-1.4,3.9c-5.4,5-20.1,6-27.9,6.2
		c-30.8-0.2-29.2-9.1-29.4-9.1c0-0.2,0-5.2,0-4.8c5.8,6.6,20.7,8.3,29.6,8.3c8.9-0.2,23.8-1.7,29.6-8.3
		C1333.9,64.6,1333.7,68.3,1333.7,68.1z M1303.5,57.4c0.4,0.2,1,0.2,1.4,0c20.7-8.3,20.5-8.1,29.2-11.6c0,0.2-0.4,18-0.4,16.7
		c-5.2,5.2-22.1,5.8-29.6,5.8s-24.4-0.6-29.6-5.8c0-0.2-0.4-18-0.4-16.7C1283.4,49.5,1277.2,47,1303.5,57.4L1303.5,57.4z"/>
</g>
<g>
	<path class="st3" d="M691.2,472c2.7-0.1,5.3-0.5,8-1c-2.7-0.5-5.3-0.8-8-1c-5.2-0.4-10.3-0.4-16,0c-2.7,0.1-5.3,0.5-8,1
		c2.7,0.5,5.3,0.8,8,1C680.9,472.4,686,472.4,691.2,472z"/>
	<path class="st3" d="M692.2,477.8c-4.9-1.7-13.4-1.7-18.2,0C678.9,479.5,687.4,479.5,692.2,477.8z"/>
	<path class="st3" d="M711.9,454.8c-0.3-0.1-0.6-0.1-0.9-0.3h-0.5h-0.4h-3h-23.6H660h-3c-0.5,0-0.9,0-1.5,0
		c-2.1,0.4-3.7,1.8-4.3,3.7c-0.1,0.5-0.1,1.3-0.1,1.7v1.4l0.1,11.7c0.4,25.6,0.4,24.6,0.4,25.2c0,0.5,0.3,1.2,0.5,1.7
		c0.5,1,1.4,1.8,2.6,2.1c0.5,0.1,1.2,0.1,1.5,0.1c0.1,0,4.6-0.1,4.4-0.1c3.5-0.1,7-0.1,10.4-0.3c0.5,1,1.3,1.9,2.1,2.7
		c0.1,0.1,0.3,0.1,0.3,0.3c-0.9,1.3-1.7,2.4-2.4,3.9c-1,1.7-1.9,3.3-2.7,5c-0.1,0.3-0.1,0.5-0.1,0.8c0.1,0.6,0.8,1,1.4,0.8h0.1
		c1.3-0.4,2.6-0.8,3.9-1.2c0.5,1.3,1,2.4,1.5,3.6v0.1c0.1,0.3,0.3,0.5,0.6,0.5c0.6,0.3,1.3,0,1.5-0.6c0.8-1.7,1.4-3.5,2.1-5.3
		c0.5-1.4,0.9-2.7,1.3-4.1c0.8,0.1,1.5,0.3,2.2,0.3c0.9,0,1.9-0.1,2.8-0.4c0.4,1.4,0.9,2.8,1.3,4.3c0.6,1.8,1.3,3.6,2.1,5.3
		c0.1,0.3,0.3,0.5,0.5,0.6c0.5,0.3,1.3,0,1.5-0.5v-0.1c0.5-1.2,1-2.4,1.5-3.6c0.4,0.1,0.9,0.3,1.3,0.4c2.1,0.6,2.4,0.8,2.6,0.8
		c0.3,0.1,0.5,0,0.9-0.1c0.5-0.3,0.8-1,0.5-1.5c-0.5-0.9-0.9-1.8-1.4-2.6c-0.5-0.9-0.9-1.8-1.4-2.6c-0.8-1.4-1.7-2.7-2.6-4
		c0.8-0.8,1.3-1.7,1.8-2.6c3.5,0.1,7,0.3,10.4,0.3c1.9,0,3.9,0.1,5.9,0.1c1.7-0.1,3.2-1.3,3.6-3.1c0.1-0.5,0.1-1.2,0.1-1.7l0.4-23.6
		c0-1.4,0.1-10.4,0.1-14c0-0.3,0-0.5,0-0.8C715.1,457.2,713.7,455.4,711.9,454.8L711.9,454.8z M677.9,511.8c-0.5,0.9-1,1.7-1.4,2.6
		c-0.3-0.8-0.6-1.7-0.9-2.4c-0.3-0.6-0.9-1-1.5-0.8c-0.8,0.3-1.7,0.5-2.4,0.9c1.2-3,1.8-4.9,2.3-7c1.8,1.5,4,2.7,6.3,3.2
		C679.3,509.4,678.5,510.7,677.9,511.8L677.9,511.8z M693.7,509c0.3,0.9,0.6,1.8,1,2.8c0,0.1,0,0.1,0.1,0.3
		c-0.8-0.3-1.5-0.5-2.4-0.8c-0.6-0.3-1.3,0.1-1.5,0.8c-0.3,0.8-0.6,1.7-0.9,2.4c-0.5-0.9-1-1.8-1.5-2.6c-0.8-1.3-1.5-2.4-2.3-3.7
		c2.3-0.6,4.5-1.8,6.2-3.5C692.7,506,693.2,507.6,693.7,509L693.7,509z M691.2,486.6c2.1,2.3,3.2,5.3,3.1,8.2s-1.3,5.9-3.5,7.9
		c-2.1,2.1-5,3.2-7.9,3.2c-3,0-5.8-1.2-7.9-3.2c-2.2-2.1-3.3-4.9-3.5-7.9s1-6.1,3.1-8.4c2.1-2.3,5-3.7,8.2-4.1
		c-3.2-0.3-6.7,0.9-9.1,3.2c-2.6,2.3-4.1,5.7-4.1,9.1v0.3c-3.3-0.1-6.8-0.3-10.2-0.4c0.1-2.6,0.1-5.2,0.3-7.7l0.3-8.2v-15.1
		l10.9,0.1H683c7.7,0,15.5,0,23.2-0.1c0.1,8.4,0.4,22.5,0.6,31.2c-3.6,0.1-7.2,0.3-10.8,0.4c0-0.1,0-0.1,0-0.3
		c-0.1-3.5-1.7-7-4.3-9.1c-2.6-2.3-5.9-3.5-9.1-3.2C686,482.7,689.1,484.3,691.2,486.6z M713.3,498.8c-0.3,1.3-1.3,2.2-2.6,2.4
		c-1.8,0.1-3.9,0.1-5.8,0.1c-3.5,0.1-7,0.1-10.4,0.3c1.2-1.9,1.7-4.3,1.7-6.4c3.7,0.1,7.6,0.3,11.3,0.4c0.3,0,0.5-0.1,0.5-0.4
		c0.1-2.3,0.1-1.8,0.4-16.5c0.1-5.4,0.3-10.9,0.3-16.4c0-0.6-0.5-1.2-1.2-1.2c-8.1-0.1-16.2-0.1-24.3-0.1h-12.1
		c-0.1,0-12.4,0.1-12.2,0.1c-0.6,0-1.2,0.5-1.2,1.2l0.3,16.4l0.3,8.2c0,2.7,0.1,5.4,0.3,8.2c0,0.3,0.3,0.4,0.4,0.4
		c3.5-0.1,7.1-0.3,10.6-0.4c0,2.2,0.6,4.5,1.7,6.4c-7.5-0.3-9.3-0.3-13.4-0.4h-1.4c-0.5,0-0.9,0-1.3-0.1c-1.2-0.5-2.1-1.7-2.1-3
		c0-0.4,0-0.9,0-1.4l0.4-23.6l0.1-11.7c0-0.9,0-2.1,0.1-2.6c0.3-1,1.2-1.7,2.2-1.8h1.3h3l23.6,0.1l23.6-0.1h3h0.4h0.3
		c0.1,0,0.4,0,0.5,0.1c0.3,0.1,0.6,0.3,0.9,0.5c0.5,0.4,0.9,1,0.9,1.8v0.6c0,0.1,0,2.3,0,2.2l0.1,11.7l0.3,23.4
		C713.4,498,713.4,498.4,713.3,498.8L713.3,498.8z"/>
</g>
<g>
	<path class="st3" d="M1385.9,253.4c-1.3-1.1-2.7-1.9-4.3-2.4c-1.6-0.5-3.3-0.5-4.6-0.5h-3.8c0.2-0.2,0.3-0.2,0.3-0.3
		c2.5-2,3.9-5.4,3.9-8.7c0-5.7-4.3-11.5-12.8-11.3l-13.4,0.2c-1.1,0-2.2,0-3.2,0c-0.2,0-0.3,0-0.5,0.2c-11.2,0.3-22.4,0.5-33.6,0.9
		c-0.2,0-0.2,0-0.3,0.2s-0.2,0.3,0,0.6c2,2.8,3.5,6.1,3.6,9.6c0-0.8,0-1.7-0.2-2.5c2.4,0.6,4.6,0.9,6.9,1.3c2.4,0.2,4.6,0.3,6.9,0.3
		s4.6-0.2,6.9-0.3c2.4-0.2,4.6-0.6,6.9-1.3c-2.4-0.6-4.6-0.9-6.9-1.3c-2.4-0.2-4.6-0.3-6.9-0.3s-4.6,0.2-6.9,0.3
		c-2.2,0.2-4.6,0.5-6.8,1.1c-0.2-0.9-0.3-1.7-0.6-2.7c-0.5-1.4-1.1-2.8-1.9-4.1c10.9,0.5,21.8,0.6,32.6,0.8c0.2,0,0.3,0.2,0.6,0.2
		c2.2,0,4.4,0.9,5.8,2.5c1.6,1.6,2.4,3.8,2.4,5.8c0,2.2-0.8,4.4-2.4,5.8c-1.6,1.6-3.6,2.5-5.8,2.5c-0.2,0-0.3,0-0.6,0.2
		c-10.9,0.2-21.8,0.5-32.6,0.8c0.8-1.3,1.4-2.7,1.9-4.1c0.3-0.8,0.5-1.7,0.6-2.7c1.6,0.6,3.3,0.9,4.9,1.3c1.6,0.2,3.3,0.3,4.9,0.3
		c1.6,0,3.3-0.2,4.9-0.3c1.6-0.3,3.3-0.6,4.9-1.3c-1.6-0.6-3.3-0.9-4.9-1.3c-1.6-0.2-3.3-0.3-4.9-0.3c-1.6,0-3.3,0.2-4.9,0.3
		c-1.6,0.3-3.3,0.6-4.9,1.3c0.2-0.8,0.2-1.7,0.2-2.5c-0.2,3.5-1.6,6.8-3.6,9.6c0,0,0,0.2-0.2,0.3c0,0.3,0.2,0.5,0.5,0.5
		c3.9,0.2,8,0.3,12,0.5c2,2.8,3.5,6,3.6,9.5c0-0.8,0-1.7-0.2-2.5c2.4,0.6,4.6,0.9,6.9,1.3c2.4,0.2,4.6,0.3,6.9,0.3
		c2.4,0,4.6-0.2,6.9-0.3s4.6-0.6,6.9-1.3c-2.4-0.6-4.6-0.9-6.9-1.3c-2.4-0.2-4.6-0.3-6.9-0.3c-2.4,0-4.6,0.2-6.9,0.3
		c-2.4,0.2-4.6,0.6-6.9,1.3c-0.2-0.9-0.3-1.7-0.6-2.7c-0.5-1.4-1.1-2.8-1.9-4.1c10.9,0.5,21.8,0.6,32.6,0.8c0.2,0,0.3,0.2,0.6,0.2
		c2.2,0,4.4,0.9,5.8,2.5c1.6,1.6,2.4,3.8,2.4,5.8c0,2.2-0.8,4.4-2.4,5.8c-1.6,1.6-3.6,2.5-5.8,2.5c-0.2,0-0.3,0-0.6,0.2
		c-6.5,0.2-12.9,0.3-19.4,0.5c-0.9,0-1.9,0-3,0l-9.9-0.2c0.6-1.1,1.1-2.4,1.6-3.6c0.3-0.8,0.5-1.7,0.6-2.7c1.6,0.6,3.3,0.9,4.9,1.3
		c3.2,0.5,6.6,0.5,9.9,0c1.6-0.3,3.3-0.6,4.9-1.3c-1.6-0.6-3.3-0.9-4.9-1.3c-1.6-0.2-3.3-0.3-4.9-0.3c-1.6,0-3.3,0.2-4.9,0.3
		c-1.6,0.3-3.3,0.6-4.9,1.3c0.2-0.8,0.2-1.7,0.2-2.5c-0.2,3.3-1.4,6.3-3.2,8.8h-2.8c-1.3,0-3.2,0-4.6,0.5c-1.6,0.5-3,1.3-4.3,2.4
		c-2.5,2-3.9,5.4-3.9,8.7c0,6,4.6,11.5,12.8,11.3c8.7-0.2,26.8-0.2,50.6-1.1c0.2,0,0.2,0,0.3-0.2c0.2-0.2,0.3-0.5,0.2-0.6
		c-2-2.8-3.5-6.1-3.6-9.6c0,0.8,0,1.7,0.2,2.5c-2.4-0.6-4.6-0.9-6.9-1.3c-2.4-0.2-4.6-0.3-6.9-0.3c-2.4,0-4.6,0.2-6.9,0.3
		c-2.4,0.2-4.6,0.6-6.9,1.3c2.4,0.6,4.6,0.9,6.9,1.3c4.6,0.5,9,0.5,13.9,0c2.4-0.2,4.6-0.6,6.9-1.3c0.2,0.9,0.3,1.7,0.6,2.7
		c0.5,1.4,1.1,2.8,1.9,4.1c-10.9-0.5-21.8-0.6-32.6-0.8c-0.2,0-0.3-0.2-0.6-0.2c-2.2,0-4.4-0.9-5.8-2.5c-1.6-1.6-2.4-3.8-2.4-5.8
		c0-2.2,0.8-4.4,2.4-5.8c1.6-1.6,3.6-2.5,5.8-2.5c0.2,0,0.3,0,0.6-0.2c6.5-0.2,12.9-0.3,19.4-0.5h3l9.9,0.2
		c-0.6,1.1-1.1,2.4-1.6,3.6c-0.3,0.8-0.5,1.7-0.6,2.7c-5.2-2-14.5-2-19.7,0c5.2,2,14.3,2,19.7,0c-0.2,0.8-0.2,1.7-0.2,2.5
		c0.2-3.3,1.4-6.3,3.2-8.8h2.8c1.3,0,3.2,0,4.6-0.5c1.6-0.5,3-1.3,4.3-2.4c2.5-2,3.9-5.4,3.9-8.7
		C1389.9,258.8,1388.5,255.6,1385.9,253.4L1385.9,253.4z M1332.4,274.2c-2.2,2-3.5,5-3.5,8c0,3,1.3,6,3.3,8l0.5,0.5l-9-0.2
		c-6.5,0-9.6-3.9-9.6-8.4c0-2.4,1.1-4.7,2.8-6.3c0.9-0.8,1.9-1.4,3.2-1.7s2.4-0.3,3.8-0.3l9-0.2
		C1332.7,274.1,1332.5,274.1,1332.4,274.2z M1364.8,250.3h-9c0.2-0.2,0.3-0.3,0.5-0.3c2.2-2,3.5-5,3.5-8s-1.3-6-3.3-8
		c-0.2-0.2-0.3-0.3-0.5-0.5l9,0.2c6.6,0,9.6,4.1,9.6,8.4c0,2.4-1.1,4.7-2.8,6.3c-0.9,0.8-1.9,1.4-3.2,1.7S1366.4,250.3,1364.8,250.3
		L1364.8,250.3z M1383.9,268.4c-0.9,0.8-1.9,1.4-3.2,1.7c-1.1,0.3-2.2,0.3-3.8,0.3l-9,0.2c0.2-0.2,0.3-0.3,0.5-0.3
		c2.2-2,3.5-5,3.5-8c0-3-1.3-6-3.3-8c-0.2-0.2-0.3-0.3-0.5-0.5l9,0.2c1.6,0,2.5,0,3.8,0.3c1.1,0.3,2.2,0.9,3.2,1.7
		c1.7,1.6,2.8,3.9,2.8,6.3C1386.7,264.4,1385.6,266.8,1383.9,268.4L1383.9,268.4z"/>
</g>
</svg>
